<?xml version="1.0" standalone="no"?>
<!DOCTYPE svg PUBLIC "-//W3C//DTD SVG 20010904//EN"
 "http://www.w3.org/TR/2001/REC-SVG-20010904/DTD/svg10.dtd">
<svg version="1.0" xmlns="http://www.w3.org/2000/svg"
 width="181.000000pt" height="181.000000pt" viewBox="0 0 181.000000 181.000000"
 preserveAspectRatio="xMidYMid meet">
<metadata>
Created by potrace 1.10, written by Peter Selinger 2001-2011
</metadata>
<g transform="translate(0.000000,181.000000) scale(0.100000,-0.100000)"
fill="#000000" stroke="none">
<path d="M759 1796 c-2 -2 -20 -6 -39 -9 -50 -8 -118 -26 -138 -36 -9 -5 -39
-18 -67 -31 -87 -38 -179 -106 -262 -193 -77 -81 -167 -213 -180 -267 -3 -14
-9 -30 -14 -35 -7 -9 -13 -30 -34 -120 -3 -11 -8 -45 -11 -75 -5 -51 -4 -54
10 -36 9 11 16 29 16 40 0 11 9 53 20 93 59 210 182 382 354 498 103 68 176
100 300 130 109 27 143 45 85 45 -20 0 -38 -2 -40 -4z"/>
<path d="M994 1786 c11 -9 27 -16 37 -16 57 0 329 -101 329 -122 0 -5 5 -8 11
-8 22 0 150 -111 205 -178 94 -114 152 -237 189 -401 20 -88 41 -108 32 -30
-4 30 -9 65 -12 79 -4 14 -8 36 -11 49 -3 13 -16 51 -30 85 -81 199 -265 394
-449 476 -27 13 -58 26 -67 31 -15 8 -38 14 -123 34 -11 3 -45 8 -75 11 -51 5
-54 4 -36 -10z"/>
<path d="M1008 1676 c-16 -11 -18 -46 -9 -118 1 -4 10 -10 21 -13 15 -5 20
-15 20 -40 0 -27 -7 -39 -33 -59 -57 -44 -80 -29 -81 53 -1 49 -26 61 -74 36
-33 -18 -37 -25 -40 -63 -4 -54 16 -86 63 -103 19 -7 37 -20 40 -29 6 -18 -11
-198 -21 -224 -13 -35 -43 -8 -87 80 -20 39 -47 85 -62 102 l-25 30 25 28 c30
32 30 33 8 76 -9 18 -19 40 -23 48 -4 8 -15 17 -25 18 -16 4 -16 2 -1 -19 9
-13 16 -31 16 -40 0 -9 7 -19 15 -23 8 -3 15 -15 15 -26 0 -21 -14 -27 -25
-10 -12 20 -24 9 -31 -26 -6 -31 -2 -40 24 -67 17 -18 44 -61 60 -97 16 -36
44 -78 62 -95 18 -16 35 -38 39 -49 7 -17 9 -16 25 8 21 33 33 104 39 220 l4
88 -31 19 c-17 10 -38 19 -47 19 -26 0 -45 29 -32 48 7 12 6 23 -4 39 -22 34
2 37 30 3 14 -16 30 -30 36 -30 6 0 11 -9 11 -20 0 -26 -16 -26 -30 0 -11 21
-30 19 -30 -4 0 -8 20 -19 45 -25 25 -6 48 -18 51 -26 4 -11 18 -4 57 27 29
22 56 47 61 55 5 9 6 41 3 72 -5 50 -4 54 9 37 8 -11 14 -28 14 -39 0 -13 5
-17 18 -13 22 7 47 -8 37 -23 -4 -7 -16 -11 -28 -9 -15 2 -23 -3 -25 -17 -2
-11 -28 -42 -57 -70 -48 -46 -53 -55 -58 -105 -3 -30 -6 -78 -6 -107 l-1 -51
56 33 c30 18 61 39 69 45 17 14 21 35 5 25 -5 -3 -17 -2 -26 3 -14 8 -14 10 0
21 13 11 19 11 31 1 12 -10 16 -9 21 4 3 9 10 16 16 16 5 0 6 -4 3 -10 -3 -5
0 -10 8 -10 23 0 41 -26 23 -33 -8 -3 -20 1 -28 10 -11 14 -13 13 -18 -8 -3
-13 -23 -35 -44 -49 -36 -23 -37 -25 -14 -31 13 -3 38 -13 55 -23 42 -21 73
-5 73 38 0 16 8 38 17 49 17 18 17 19 0 28 -22 13 -23 44 -1 35 9 -3 18 -6 20
-6 2 0 4 -9 4 -19 0 -10 7 -21 15 -25 8 -3 15 -14 15 -24 0 -11 9 -31 20 -45
11 -14 20 -30 20 -36 0 -16 -30 -14 -36 3 -4 11 -10 11 -29 3 -36 -18 -50 -45
-32 -65 8 -10 17 -24 19 -32 3 -11 20 2 59 42 l54 57 40 -19 c45 -22 75 -25
75 -9 0 6 28 40 62 75 56 58 60 66 50 88 -19 43 -49 43 -88 1 -19 -21 -34 -39
-34 -41 0 -11 22 -1 48 21 35 30 38 30 46 8 5 -12 -10 -33 -49 -73 -48 -48
-60 -56 -86 -52 -16 2 -32 8 -35 13 -3 5 -16 9 -28 9 -38 0 -50 23 -42 85 4
35 2 55 -4 55 -5 0 -10 -9 -10 -19 0 -21 -26 -36 -36 -20 -3 6 1 18 10 28 22
24 20 34 -5 28 -13 -3 -28 2 -40 14 -26 26 -54 24 -77 -6 -12 -15 -30 -25 -46
-25 -29 0 -67 -54 -43 -63 19 -7 -7 -30 -29 -25 -22 4 -28 34 -20 92 6 35 20
55 89 125 l82 83 -35 29 c-32 27 -34 31 -23 58 12 33 -1 52 -44 65 -13 4 -23
12 -23 17 0 13 -22 11 -42 -5z m37 -31 c0 -28 -29 -25 -33 3 -3 19 0 23 15 20
10 -2 18 -12 18 -23z m65 -25 c0 -5 -13 -13 -29 -18 -16 -6 -32 -20 -36 -31
-9 -29 -25 -26 -25 4 0 14 6 25 13 25 7 0 18 9 24 19 12 19 53 19 53 1z m-204
-115 c-7 -19 -36 -19 -36 0 0 17 33 38 38 24 2 -5 1 -16 -2 -24z m304 -179 c0
-11 -33 -36 -41 -31 -19 12 -9 35 16 35 14 0 25 -2 25 -4z m-60 -136 c0 -11
-7 -20 -15 -20 -8 0 -15 9 -15 20 0 11 7 20 15 20 8 0 15 -9 15 -20z"/>
<path d="M631 1588 c-17 -18 -31 -37 -31 -43 0 -5 16 -28 35 -49 42 -48 47
-79 11 -70 -18 4 -28 0 -38 -15 -7 -12 -16 -21 -20 -21 -15 0 -50 72 -45 92
11 39 -39 79 -58 48 -4 -6 -21 -8 -39 -5 -46 9 -62 -12 -45 -60 19 -50 45 -72
69 -58 16 10 23 5 57 -40 29 -40 37 -58 33 -77 -3 -14 -13 -25 -22 -25 -40 -1
-63 -51 -33 -75 8 -7 15 -18 15 -25 0 -18 37 -48 52 -42 7 2 26 -2 41 -10 15
-8 32 -11 37 -8 5 3 20 3 34 -1 26 -6 43 -38 48 -89 3 -29 2 -29 -50 -32 -30
-2 -76 -12 -104 -23 -45 -17 -54 -18 -78 -5 -16 8 -31 20 -33 27 -4 10 -8 9
-16 -2 -15 -22 -15 -22 33 -51 l44 -27 50 25 c53 26 139 35 176 18 18 -8 18
-5 11 51 -4 32 -14 74 -22 92 -17 35 -67 69 -78 52 -10 -17 -43 -11 -58 10
-13 18 -16 19 -27 5 -17 -20 -44 -20 -36 1 3 9 6 18 6 20 0 2 7 4 15 4 12 0
13 4 5 19 -14 27 -13 64 3 58 6 -2 11 -16 10 -29 -2 -34 51 -88 69 -70 9 9 9
12 0 12 -21 0 -65 88 -60 122 4 25 0 36 -22 54 -15 13 -38 43 -51 68 -24 46
-39 58 -39 32 0 -15 -37 -32 -47 -23 -2 3 4 14 15 25 11 11 18 23 14 26 -3 3
1 6 9 6 8 0 19 10 24 23 6 12 15 21 20 19 12 -4 7 -36 -6 -40 -5 -2 0 -16 10
-30 10 -15 26 -39 35 -54 22 -37 64 -64 77 -51 8 8 6 19 -6 37 -14 22 -15 26
-3 26 8 0 23 -9 33 -20 17 -19 17 -21 1 -39 -13 -15 -14 -20 -4 -24 9 -3 20
14 32 52 17 54 17 60 2 89 -23 44 -21 62 8 62 16 0 27 -7 31 -21 5 -15 10 -18
17 -11 8 8 6 19 -6 36 -9 14 -16 33 -16 42 0 18 -27 43 -47 44 -7 0 -26 -15
-42 -32z m59 -2 c0 -27 -15 -42 -25 -26 -8 13 3 50 16 50 5 0 9 -11 9 -24z
m-36 -32 c18 -17 13 -34 -10 -34 -8 0 -14 10 -14 25 0 29 3 30 24 9z m-206
-66 c5 -25 -25 -23 -38 3 -10 18 -9 20 12 17 12 -2 24 -11 26 -20z m100 -270
c5 -25 -25 -23 -38 3 -10 18 -9 20 12 17 12 -2 24 -11 26 -20z"/>
<path d="M1500 1452 c-65 -5 -75 -73 -14 -88 31 -8 28 -17 -16 -46 -22 -15
-36 -33 -38 -48 -2 -24 -2 -24 10 -5 14 24 49 54 63 55 6 0 16 4 23 9 22 13
-11 71 -36 64 -12 -3 -22 2 -26 13 -9 23 1 31 24 17 14 -10 21 -9 30 2 7 8 16
15 21 15 12 0 11 -37 -1 -45 -7 -4 -5 -14 5 -28 8 -12 15 -28 15 -37 0 -8 9
-26 20 -40 31 -39 24 -60 -35 -114 l-55 -51 26 -52 c33 -70 52 -71 55 -2 2 45
9 69 19 69 17 0 19 -32 3 -56 -9 -15 -12 -29 -7 -34 15 -15 31 3 38 42 6 31 3
39 -19 56 l-26 20 20 33 c11 18 18 36 15 40 -2 4 5 23 15 40 19 31 19 35 4 51
-9 10 -24 18 -34 18 -23 0 -34 18 -31 50 4 35 -24 56 -68 52z m118 -131 c10
-6 10 -10 -2 -20 -17 -14 -36 -7 -36 15 0 15 18 18 38 5z"/>
<path d="M616 1313 c-32 -32 42 -153 77 -125 7 6 22 12 35 14 l22 3 -23 35
c-25 36 -99 85 -111 73z m77 -79 c-1 -5 -9 -11 -19 -12 -10 -3 -14 0 -10 7 4
6 0 11 -8 11 -17 0 -21 12 -9 23 8 9 49 -17 46 -29z"/>
<path d="M192 1243 c-23 -20 -31 -71 -18 -115 6 -20 4 -32 -8 -43 -23 -24 -20
-71 6 -89 12 -8 22 -23 23 -33 4 -34 16 -51 46 -63 36 -15 36 -25 2 -47 -16
-9 -37 -24 -48 -34 -11 -9 -32 -19 -46 -23 -34 -8 -42 -28 -25 -63 8 -16 20
-40 27 -55 17 -37 32 -35 75 9 29 29 35 42 30 64 -5 24 0 30 35 48 58 31 79
28 79 -9 0 -17 -8 -43 -17 -57 l-18 -27 32 23 c38 29 47 47 27 55 -14 5 -14 8
0 22 21 20 20 34 -1 34 -9 0 -25 8 -35 17 -17 15 -20 15 -46 -9 -15 -14 -41
-33 -58 -41 -17 -9 -36 -22 -42 -30 -10 -12 -9 -16 8 -20 12 -3 20 -13 20 -26
0 -25 -8 -26 -32 -4 -17 15 -33 20 -78 22 -12 1 -11 4 3 18 14 14 21 15 36 6
16 -10 20 -9 24 6 2 11 29 35 60 54 30 19 58 40 61 46 6 10 -45 39 -99 56 -20
6 -20 7 -1 20 18 13 18 16 3 39 -12 17 -22 23 -37 19 -25 -7 -26 5 -2 23 10 8
12 13 5 14 -15 0 -18 30 -3 30 6 0 10 -5 10 -11 0 -5 4 -8 9 -4 16 9 25 -16
10 -27 -10 -7 -6 -8 14 -4 20 5 27 2 27 -8 0 -8 -4 -16 -8 -18 -17 -6 18 -68
47 -83 28 -14 31 -13 59 13 38 36 30 53 -41 88 -68 34 -87 52 -87 81 0 13 -6
23 -14 23 -12 0 -30 39 -22 48 9 8 46 -24 46 -41 0 -14 4 -16 19 -7 26 14 31
13 31 -6 0 -9 -9 -18 -20 -21 -28 -7 -10 -27 45 -52 23 -10 55 -35 71 -55 34
-42 50 -45 56 -12 3 16 1 23 -7 20 -7 -3 -19 1 -26 9 -8 7 -34 28 -59 46 -28
20 -44 40 -45 54 -1 12 -2 36 -3 54 -1 20 -13 42 -33 62 -36 36 -40 37 -67 14z
m38 -23 c0 -19 -17 -36 -27 -26 -3 3 -2 17 1 31 7 28 26 25 26 -5z m40 -29 c0
-24 -18 -37 -32 -23 -8 8 -7 16 2 27 17 21 30 19 30 -4z m54 -201 c12 -12 0
-40 -17 -40 -20 0 -50 37 -42 50 7 11 42 5 59 -10z m-127 -286 c2 -5 -3 -19
-11 -29 -14 -19 -15 -19 -21 -2 -4 9 -4 24 -1 33 6 16 27 15 33 -2z"/>
<path d="M1224 1195 c-12 -50 13 -68 35 -26 7 13 5 22 -9 34 -19 16 -20 15
-26 -8z"/>
<path d="M707 1174 c-3 -4 5 -15 19 -26 30 -24 47 -57 63 -123 16 -66 51 -145
63 -145 6 0 8 10 4 23 -3 12 -6 48 -6 79 0 51 -4 62 -34 95 -18 21 -39 52 -47
68 -13 28 -47 44 -62 29z"/>
<path d="M1008 1107 c-33 -27 -44 -54 -53 -133 -4 -32 -13 -69 -21 -81 -16
-25 -19 -73 -5 -73 5 0 19 29 31 64 11 35 32 73 45 86 26 24 33 24 118 -4 46
-15 48 -14 61 7 28 43 29 73 4 96 -28 27 -103 61 -132 61 -11 0 -33 -10 -48
-23z m116 -29 c51 -24 57 -33 45 -65 -10 -27 -18 -28 -83 -8 -28 8 -58 13 -68
9 -29 -9 -23 40 8 65 33 26 43 26 98 -1z"/>
<path d="M1301 1069 c-18 -22 -44 -45 -57 -51 -13 -6 -24 -15 -24 -20 0 -16
95 40 129 76 34 35 35 36 10 36 -16 0 -35 -14 -58 -41z"/>
<path d="M1460 1080 c-8 -5 -27 -7 -41 -4 -17 3 -32 -1 -43 -11 -17 -18 -13
-35 8 -35 7 0 21 -9 31 -20 10 -11 29 -20 43 -20 24 0 25 0 7 20 -10 11 -15
23 -11 27 10 10 42 -13 38 -27 -2 -7 3 -10 12 -7 8 3 17 3 20 -1 8 -7 -49 -32
-74 -32 -15 0 -30 -18 -30 -36 0 -11 52 -2 79 13 34 20 38 18 51 -26 10 -36
-5 -39 -24 -5 -6 10 -12 21 -13 23 -2 2 -12 -4 -23 -14 -15 -14 -29 -16 -63
-11 -41 6 -46 5 -71 -25 l-26 -31 46 -42 c62 -54 122 -88 127 -73 3 9 9 9 23
1 26 -15 29 -34 5 -34 -24 0 -24 2 -10 -38 7 -20 15 -29 25 -25 8 3 17 -4 23
-18 12 -32 7 -35 -24 -15 -23 15 -27 15 -41 1 -8 -8 -21 -15 -29 -15 -8 0 -1
-12 15 -30 36 -38 55 -38 80 3 25 41 25 69 0 85 -21 13 -26 42 -10 58 17 17
-17 54 -49 54 -30 0 -93 37 -122 73 -15 19 -16 24 -4 36 16 17 114 24 131 10
13 -11 84 -2 84 11 0 4 -10 14 -22 22 -13 9 -18 19 -14 27 10 15 36 -4 36 -25
0 -18 56 -19 67 -1 4 6 8 33 9 58 2 41 -1 48 -23 60 -21 11 -27 11 -30 2 -3
-7 -12 -13 -21 -13 -13 0 -13 -3 -4 -12 10 -10 17 -10 33 0 24 15 34 10 25
-13 -9 -24 -34 -29 -51 -11 -9 9 -29 16 -45 16 -27 0 -45 15 -75 64 -7 11 -14
13 -25 6z m118 -97 c-4 -22 -38 -30 -38 -10 0 14 13 24 33 26 5 1 7 -7 5 -16z
m75 -35 c4 -12 4 -24 2 -26 -7 -8 -35 20 -35 34 0 23 27 16 33 -8z m-108 -377
c-3 -12 -10 -21 -15 -21 -14 0 -21 32 -9 47 16 19 33 1 24 -26z"/>
<path d="M1276 987 l-60 -32 42 -9 c44 -9 72 2 72 30 0 7 10 20 22 28 42 29
-11 17 -76 -17z"/>
<path d="M1396 991 c-4 -6 -15 -11 -25 -11 -10 0 -23 -11 -29 -25 -13 -28 -14
-28 -91 -29 -34 -1 -56 -6 -58 -13 -3 -8 4 -13 15 -13 10 0 37 -12 58 -26 29
-20 39 -23 42 -13 3 8 30 38 60 67 40 37 53 55 45 63 -8 8 -13 8 -17 0z"/>
<path d="M1016 919 c-14 -17 -26 -38 -26 -48 0 -15 7 -16 55 -11 44 5 62 13
87 37 l31 31 -39 11 c-61 17 -80 13 -108 -20z"/>
<path d="M405 930 c-8 -12 52 -42 73 -38 12 3 3 11 -25 25 -24 12 -45 17 -48
13z"/>
<path d="M356 904 c-9 -22 11 -44 40 -44 30 0 30 3 -1 35 -31 30 -31 30 -39 9z"/>
<path d="M613 903 c-24 -8 -43 -18 -43 -21 0 -4 31 -26 68 -48 53 -32 76 -40
100 -36 28 4 30 7 21 24 -6 10 -9 33 -7 49 2 18 -3 33 -12 39 -22 14 -78 11
-127 -7z m102 -38 c0 -25 -24 -29 -50 -9 -17 13 -18 16 -5 24 24 16 55 7 55
-15z"/>
<path d="M786 853 c7 -33 35 -75 53 -81 17 -6 6 31 -23 75 -26 40 -38 42 -30
6z"/>
<path d="M1145 850 c-16 -16 -27 -31 -24 -33 2 -2 23 -9 47 -16 40 -11 44 -10
78 15 l36 28 -34 17 c-47 26 -70 23 -103 -11z"/>
<path d="M440 864 c0 -4 97 -64 104 -64 4 0 2 10 -5 23 -9 19 -7 18 15 -5 15
-16 33 -28 41 -28 8 0 40 -22 71 -50 52 -45 62 -50 106 -50 69 0 62 26 -12 49
-62 20 -98 37 -185 89 -38 23 -73 37 -97 37 -21 1 -38 0 -38 -1z"/>
<path d="M424 825 c-4 -9 -4 -18 -2 -21 9 -8 39 8 35 19 -6 18 -27 20 -33 2z"/>
<path d="M14 778 c32 -258 177 -486 401 -631 79 -50 123 -61 201 -51 85 10
112 44 140 178 8 39 35 115 60 170 56 121 62 154 37 183 -14 16 -33 22 -81 26
-47 4 -69 10 -87 27 -34 32 -65 20 -65 -26 0 -37 15 -46 23 -13 5 19 7 20 36
4 18 -9 57 -19 89 -23 56 -7 57 -7 60 -42 2 -25 -9 -59 -38 -119 -23 -47 -51
-124 -62 -172 -28 -122 -44 -144 -110 -159 -39 -9 -64 -9 -94 -1 -105 28 -276
180 -361 319 -50 80 -114 255 -128 345 -9 60 -29 46 -21 -15z"/>
<path d="M1023 819 c-18 -5 -33 -14 -33 -20 0 -7 7 -8 18 -4 9 4 32 9 50 12
17 3 32 10 32 14 0 11 -25 10 -67 -2z"/>
<path d="M1774 793 c-35 -199 -123 -374 -253 -504 -70 -69 -168 -140 -228
-165 -86 -36 -222 -3 -276 67 -40 52 -50 87 -49 171 1 120 24 163 131 242 47
36 111 90 141 120 35 37 62 56 78 56 23 0 114 -65 109 -78 -3 -12 26 -92 34
-92 4 0 9 7 13 15 3 8 12 15 21 15 33 0 6 64 -37 86 -18 9 -54 35 -80 57 -59
49 -82 46 -146 -24 -26 -28 -91 -84 -144 -125 -113 -86 -134 -118 -150 -232
-10 -66 -9 -86 6 -137 47 -162 244 -239 394 -154 88 49 151 99 229 182 70 74
157 206 170 257 3 14 9 30 14 35 7 9 13 30 34 120 13 55 17 125 7 125 -6 0
-14 -17 -18 -37z m-294 -113 c-6 -11 -17 -20 -24 -20 -9 0 -12 7 -9 20 3 11
14 20 25 20 16 0 17 -3 8 -20z"/>
<path d="M448 793 c-10 -2 -18 -13 -18 -22 0 -10 -16 -33 -37 -50 -23 -20 -31
-31 -20 -31 13 0 15 -9 12 -49 -5 -54 6 -71 46 -71 42 0 59 -3 59 -12 0 -5 11
-13 25 -20 32 -14 55 4 55 43 0 30 15 47 23 27 3 -7 6 2 6 20 1 39 -7 40 -42
4 -20 -20 -24 -31 -16 -39 12 -12 3 -53 -12 -53 -10 0 -13 18 -10 63 1 21 -3
27 -20 27 -16 0 -19 -4 -14 -22 6 -17 4 -20 -10 -15 -9 4 -19 7 -21 7 -2 0 -4
9 -4 19 0 11 -9 22 -19 26 -11 3 -22 12 -25 20 -7 20 30 20 41 1 7 -13 52 -21
96 -17 28 2 20 17 -10 16 -14 0 -28 5 -30 10 -2 6 14 9 40 7 30 -3 47 1 56 12
8 9 20 16 28 16 8 0 13 6 11 13 -7 18 -66 20 -93 3 -31 -20 -39 -20 -31 0 3 8
2 12 -4 9 -6 -3 -10 -2 -10 3 0 15 29 23 56 16 44 -11 25 11 -25 29 -50 17
-54 18 -83 10z m40 -91 c4 -24 -7 -29 -26 -10 -18 18 -15 40 6 36 9 -2 18 -13
20 -26z m-48 -87 c0 -8 -9 -19 -20 -25 -17 -9 -20 -8 -20 8 0 10 3 22 7 25 12
12 33 7 33 -8z"/>
<path d="M1041 771 c-14 -9 -23 -121 -10 -121 11 0 126 79 139 95 7 9 11 18 8
20 -10 10 -124 15 -137 6z m54 -41 c-13 -15 -22 -17 -29 -10 -12 12 8 30 33
30 11 0 10 -5 -4 -20z"/>
<path d="M982 713 c-14 -26 -16 -73 -2 -73 10 0 24 62 18 82 -3 9 -9 6 -16 -9z"/>
</g>
</svg>
