<?xml version="1.0" standalone="no"?>
<!DOCTYPE svg PUBLIC "-//W3C//DTD SVG 20010904//EN"
 "http://www.w3.org/TR/2001/REC-SVG-20010904/DTD/svg10.dtd">
<svg version="1.0" xmlns="http://www.w3.org/2000/svg"
 width="300.000000pt" height="39.000000pt" viewBox="0 0 300.000000 39.000000"
 preserveAspectRatio="xMidYMid meet">
<metadata>
Created by potrace 1.10, written by Peter Selinger 2001-2011
</metadata>
<g transform="translate(0.000000,39.000000) scale(0.100000,-0.100000)"
fill="#000000" stroke="none">
<path d="M384 366 c-3 -8 -3 -20 0 -25 4 -6 -2 -14 -12 -20 -14 -7 -19 -23
-21 -60 -1 -27 3 -52 8 -55 5 -4 13 -42 17 -87 4 -52 11 -78 18 -76 7 2 10 28
8 73 -5 85 15 78 27 -10 7 -50 24 -88 34 -75 2 2 -3 46 -11 98 -12 71 -13 97
-4 112 16 25 4 76 -19 82 -11 3 -19 14 -19 25 0 26 -18 38 -26 18z"/>
<path d="M569 368 c-1 -7 -2 -17 -3 -23 0 -5 -11 -20 -23 -32 -27 -27 -29 -50
-6 -75 15 -16 15 -27 5 -96 -16 -100 -15 -122 2 -122 10 0 17 16 21 48 4 26
10 67 14 92 l7 45 12 -53 c7 -29 12 -63 12 -76 0 -25 25 -64 35 -54 4 3 0 47
-9 97 -15 88 -15 92 5 126 l21 34 -26 26 c-14 14 -29 25 -34 25 -5 0 -7 11 -4
25 3 18 0 25 -12 25 -9 0 -17 -6 -17 -12z"/>
<path d="M935 370 c-3 -5 -4 -19 0 -29 4 -14 0 -21 -13 -25 -26 -8 -38 -114
-16 -132 16 -13 20 -119 4 -129 -18 -11 -11 -23 10 -18 16 4 20 14 20 47 0 22
5 48 10 56 7 11 10 -3 10 -47 0 -35 4 -63 9 -63 11 0 25 102 18 130 -3 11 0
23 7 28 34 20 23 127 -14 134 -8 2 -15 14 -15 27 0 26 -19 39 -30 21z m35
-120 c0 -25 -10 -50 -21 -50 -10 0 -12 63 -3 73 11 10 24 -3 24 -23z"/>
<path d="M1404 365 c-3 -8 -3 -19 1 -25 3 -5 -1 -10 -11 -10 -13 0 -15 -5 -9
-22 11 -33 7 -110 -10 -183 -16 -67 -12 -95 12 -95 8 0 13 6 10 13 -2 7 -1 30
3 52 l8 40 1 -41 c1 -36 4 -42 26 -46 24 -5 36 7 15 14 -7 2 -8 41 -4 114 6
102 8 111 25 107 31 -8 22 14 -11 27 -24 10 -30 19 -30 41 0 30 -17 39 -26 14z"/>
<path d="M2630 344 c0 -17 -7 -28 -18 -31 -23 -6 -43 -58 -33 -86 5 -12 6 -28
4 -34 -3 -7 2 -13 11 -13 12 0 16 -16 18 -77 2 -50 7 -78 15 -81 10 -3 11 8 7
42 -4 25 -3 53 2 63 6 13 10 3 14 -37 4 -50 7 -55 30 -57 14 -1 19 0 13 3 -16
7 -18 125 -2 141 15 15 1 123 -17 130 -8 3 -14 18 -14 34 0 19 -5 29 -15 29
-9 0 -15 -10 -15 -26z m22 -91 c2 -10 1 -29 -2 -43 l-7 -25 -10 25 c-10 25 -6
60 7 60 4 0 10 -8 12 -17z"/>
<path d="M1607 354 c-4 -4 -7 -16 -7 -26 0 -10 -7 -18 -15 -18 -8 0 -21 -13
-30 -30 -14 -27 -14 -30 5 -40 16 -9 20 -21 20 -63 0 -92 24 -135 33 -59 3 20
4 9 3 -25 0 -36 3 -63 9 -63 5 0 10 6 10 13 0 6 4 54 9 105 7 78 10 91 22 81
21 -17 29 -3 10 16 -9 9 -16 25 -16 35 0 11 -6 23 -12 27 -7 4 -13 17 -13 27
0 20 -16 31 -28 20z"/>
<path d="M2380 336 c0 -13 -7 -29 -15 -36 -8 -7 -15 -21 -15 -31 0 -10 -4 -21
-10 -24 -5 -3 -10 -11 -10 -17 0 -7 4 -7 14 1 11 9 15 0 20 -51 14 -131 19
-158 28 -158 6 0 7 23 3 60 -4 38 -3 60 3 60 6 0 8 -8 6 -17 -5 -19 11 -51 21
-42 3 3 6 38 8 78 2 58 5 72 20 77 20 6 21 14 5 49 -6 14 -19 25 -30 25 -13 0
-18 7 -18 25 0 16 -6 25 -15 25 -9 0 -15 -9 -15 -24z"/>
<path d="M85 342 c-5 -4 -12 -18 -14 -32 -4 -34 0 -283 6 -292 2 -5 18 -8 35
-8 l31 0 -23 20 c-21 18 -22 23 -11 62 6 24 13 66 15 93 3 41 8 53 30 66 25
15 26 17 7 22 -12 3 -22 -1 -25 -9 -3 -8 -9 -14 -15 -14 -13 0 -20 37 -9 48
10 10 2 52 -10 52 -4 0 -11 -4 -17 -8z"/>
<path d="M1735 340 c-4 -6 -2 -17 5 -25 8 -10 8 -15 -3 -22 -17 -9 -40 -109
-30 -126 5 -8 10 0 15 18 4 17 5 -10 2 -60 -2 -50 -9 -92 -14 -93 -6 -2 -8 -7
-5 -12 9 -14 44 1 43 19 -1 9 0 38 0 64 3 73 22 47 22 -29 0 -44 4 -64 13 -64
9 0 11 20 9 75 -3 54 1 84 12 106 9 18 16 42 16 55 0 22 -23 54 -40 54 -5 0
-10 10 -12 22 -3 24 -23 35 -33 18z"/>
<path d="M2040 327 c0 -14 -7 -28 -15 -31 -9 -3 -22 -20 -29 -38 -12 -28 -12
-36 4 -67 10 -20 21 -67 24 -106 4 -38 9 -71 12 -74 11 -12 17 15 15 76 -2 79
10 75 28 -9 7 -31 19 -62 27 -69 19 -16 30 -4 14 15 -11 14 -15 95 -8 203 1
30 -3 48 -17 63 -11 12 -20 29 -20 38 0 9 -8 18 -17 20 -13 3 -18 -3 -18 -21z
m30 -102 c0 -39 -16 -47 -29 -12 -10 27 -4 47 15 47 9 0 14 -12 14 -35z"/>
<path d="M2800 322 c0 -21 -6 -33 -19 -37 -11 -3 -25 -13 -33 -22 -11 -14 -10
-16 8 -11 20 5 21 1 28 -105 5 -84 4 -112 -6 -118 -18 -12 -6 -19 21 -12 20 5
22 11 19 44 -2 22 0 39 4 39 7 0 12 -33 11 -82 0 -22 23 -24 31 -2 3 9 0 41
-8 72 -17 65 -22 156 -11 190 5 16 3 22 -7 22 -9 0 -14 9 -14 21 1 12 -5 24
-11 26 -9 3 -13 -6 -13 -25z"/>
<path d="M1099 331 c-3 -21 -4 -26 -12 -39 -17 -26 -27 -75 -17 -87 5 -6 10
-54 12 -108 2 -53 5 -97 8 -97 25 1 31 21 24 80 -9 81 9 74 25 -10 7 -33 16
-60 22 -60 16 0 24 5 22 12 -2 4 -11 46 -21 93 -16 71 -17 87 -5 96 19 17 16
39 -9 67 -13 13 -23 31 -23 39 0 18 -24 31 -26 14z"/>
<path d="M1214 325 c-4 -9 -19 -15 -35 -15 -34 0 -40 -25 -8 -35 17 -6 19 -12
13 -38 -12 -55 -11 -62 13 -60 20 2 21 0 12 -25 -13 -34 -2 -111 17 -119 8 -3
14 -11 14 -19 0 -18 8 -18 27 2 12 12 14 28 9 78 -4 46 -2 73 9 99 21 52 19
66 -15 85 -19 11 -30 25 -30 40 0 25 -18 30 -26 7z m31 -110 c2 -33 1 -34 -17
-18 -16 15 -18 25 -9 73 1 2 6 -1 13 -8 7 -7 13 -28 13 -47z m5 -137 c0 -32
-3 -39 -10 -28 -13 20 -13 70 0 70 6 0 10 -19 10 -42z"/>
</g>
</svg>
