<?xml version="1.0" standalone="no"?>
<!DOCTYPE svg PUBLIC "-//W3C//DTD SVG 20010904//EN"
 "http://www.w3.org/TR/2001/REC-SVG-20010904/DTD/svg10.dtd">
<svg version="1.0" xmlns="http://www.w3.org/2000/svg"
 width="300.000000pt" height="225.000000pt" viewBox="0 0 300.000000 225.000000"
 preserveAspectRatio="xMidYMid meet">
<metadata>
Created by potrace 1.10, written by Peter Selinger 2001-2011
</metadata>
<g transform="translate(0.000000,225.000000) scale(0.100000,-0.100000)"
fill="#000000" stroke="none">
<path d="M1657 2243 c-10 -16 6 -73 19 -73 12 0 12 5 -1 30 -23 45 -19 45 30
6 25 -21 50 -34 56 -31 6 4 9 0 7 -11 -2 -14 4 -20 25 -22 15 -2 27 -6 27 -10
0 -4 12 -13 28 -20 15 -6 51 -35 80 -62 29 -28 56 -50 60 -50 4 0 14 -9 22
-20 8 -11 18 -20 23 -20 5 0 3 7 -4 17 -11 13 -11 17 -1 20 6 3 12 10 12 15 0
6 -3 8 -6 5 -4 -3 -15 4 -25 17 -10 13 -66 53 -125 90 -59 38 -125 81 -147 97
-39 28 -71 37 -80 22z"/>
<path d="M2390 2199 c-174 -71 -267 -108 -322 -127 -27 -9 -48 -19 -48 -24 0
-4 1 -8 3 -8 1 0 16 -4 33 -9 29 -8 31 -7 26 12 -4 17 -2 19 22 13 21 -5 32
-1 50 19 23 25 43 34 31 15 -3 -5 -2 -10 4 -10 5 0 13 4 16 10 3 5 25 15 48
21 23 6 44 14 47 18 8 11 60 31 80 31 11 0 20 5 20 10 0 6 11 10 25 10 16 0
25 6 25 15 0 8 5 15 10 15 6 0 10 -4 10 -10 0 -5 7 -7 15 -4 8 4 12 10 9 15
-3 5 -1 9 4 9 6 0 12 7 16 15 3 8 4 15 3 15 -1 0 -58 -23 -127 -51z"/>
<path d="M2632 2235 c-7 -8 -13 -18 -13 -22 0 -5 -8 -17 -18 -28 -10 -11 -26
-37 -35 -58 -10 -22 -23 -36 -30 -34 -7 3 -18 -4 -24 -14 -7 -11 -24 -19 -40
-20 -24 0 -25 -1 -7 -9 11 -4 24 -4 30 1 5 5 15 9 23 9 9 0 3 -11 -14 -28 -16
-15 -30 -34 -32 -42 -2 -8 -8 -17 -13 -18 -5 -2 -6 -9 -2 -14 4 -7 -2 -9 -15
-6 -12 4 -22 2 -22 -3 0 -5 8 -10 18 -10 9 -1 1 -5 -18 -9 -22 -5 -27 -8 -13
-9 12 0 25 -6 29 -13 5 -8 2 -9 -9 -5 -10 3 -17 2 -17 -3 0 -6 -10 -10 -22
-10 -13 -1 -34 -7 -48 -15 -30 -17 -21 -19 15 -3 19 9 28 9 37 0 17 -17 41
-15 34 3 -3 9 0 15 8 15 8 0 16 8 19 18 8 22 159 255 198 305 25 31 27 37 12
37 -10 -1 -24 -7 -31 -15z"/>
<path d="M2785 2193 c15 -32 64 -155 111 -273 112 -283 103 -263 103 -212 1
24 -2 41 -6 39 -5 -3 -8 7 -9 21 -1 15 -42 128 -91 252 -76 188 -94 226 -112
228 -21 3 -21 3 4 -55z"/>
<path d="M1559 2073 c-40 -76 -89 -168 -107 -205 -34 -66 -35 -67 -111 -97
-42 -16 -85 -32 -96 -34 -18 -4 -18 -5 3 -6 12 0 22 -5 22 -10 0 -6 9 -9 19
-8 12 1 17 6 13 16 -4 10 -1 13 11 8 9 -3 17 -2 17 4 0 6 5 7 10 4 17 -10 11
-35 -7 -35 -15 0 -16 -2 -3 -10 8 -5 10 -10 5 -10 -6 0 -18 -22 -28 -50 -10
-27 -22 -50 -27 -50 -5 0 -6 -7 -3 -17 4 -11 3 -14 -5 -9 -12 7 -13 6 -17 -32
-1 -12 -6 -26 -10 -30 -5 -4 -5 1 -2 10 3 10 2 20 -2 22 -5 3 -8 -4 -7 -17 1
-12 9 -23 18 -25 13 -2 24 11 41 50 13 29 52 105 87 168 34 63 83 153 107 200
25 47 70 131 100 188 30 57 53 105 50 108 -3 3 -38 -57 -78 -133z"/>
<path d="M1670 2133 c0 -11 -4 -23 -9 -28 -25 -27 -231 -436 -225 -446 4 -7 3
-9 -4 -5 -7 4 -30 -31 -60 -89 -30 -58 -44 -94 -35 -91 8 4 26 9 39 12 17 4
22 10 16 18 -22 27 -2 82 26 71 12 -4 13 -3 2 10 -15 18 0 20 20 3 8 -7 6 -3
-4 9 -19 23 -13 48 10 39 11 -4 12 -1 5 13 -13 23 -4 33 20 21 16 -9 72 -21
112 -23 9 -1 17 -4 17 -7 0 -3 23 -5 51 -6 49 -1 50 0 25 13 -31 16 -34 27 -5
18 19 -6 20 -5 8 8 -8 8 -20 12 -28 9 -9 -3 -12 -1 -7 6 13 21 56 8 71 -22 21
-40 19 -51 -12 -64 -25 -10 -25 -11 -3 -5 14 3 31 8 38 10 6 3 12 0 12 -5 0
-6 -72 -34 -160 -64 -89 -29 -156 -54 -150 -56 6 -2 24 1 40 6 38 14 45 -5 14
-35 -19 -17 -22 -28 -18 -53 6 -27 4 -30 -12 -24 -16 6 -15 3 5 -19 22 -24 22
-27 7 -42 -9 -9 -16 -22 -16 -28 0 -7 4 -6 10 3 8 12 10 11 10 -7 0 -12 -8
-27 -17 -33 -16 -10 -16 -11 3 -7 17 4 20 0 16 -19 -2 -13 -9 -24 -16 -24 -6
0 -4 -5 4 -10 11 -7 11 -10 2 -10 -16 0 -12 -30 7 -50 13 -13 11 -16 -20 -21
-19 -4 -29 -7 -24 -8 6 -1 4 -5 -3 -10 -10 -6 -9 -10 7 -14 12 -3 19 -1 15 4
-3 5 2 9 10 9 9 0 16 -7 16 -15 0 -8 -3 -15 -7 -15 -5 0 -8 -13 -8 -30 0 -16
3 -30 6 -30 4 0 6 -8 5 -17 0 -10 6 -18 14 -18 13 0 15 34 18 233 2 182 0 232
-10 233 -12 0 179 59 193 59 3 0 6 -57 7 -126 1 -70 3 -129 6 -131 2 -3 14 0
25 7 14 7 21 7 21 0 0 -12 27 -14 34 -2 3 5 0 9 -7 10 -7 0 -21 3 -32 6 -11 2
-22 5 -25 6 -3 0 4 7 14 15 17 13 17 15 4 15 -9 0 -20 5 -24 12 -5 7 -2 9 9 5
9 -3 18 0 21 9 3 8 -1 14 -8 14 -25 0 -28 43 -3 62 12 10 16 18 9 18 -7 0 -10
5 -7 10 3 6 0 10 -7 10 -10 0 -10 2 1 9 11 7 11 9 0 13 -12 4 -12 7 0 21 12
15 10 18 -10 26 -13 5 -27 7 -31 4 -5 -2 -8 1 -8 7 0 6 -5 8 -11 5 -5 -4 -20
-8 -32 -9 -12 -2 -33 -6 -46 -10 -17 -6 -22 -5 -19 5 3 8 20 18 39 22 19 5 51
15 71 23 21 7 45 11 54 7 12 -4 15 -3 10 5 -9 16 -5 15 31 -3 17 -9 34 -22 37
-31 3 -8 2 -12 -3 -9 -5 3 -12 1 -16 -5 -3 -5 -2 -10 3 -10 5 0 9 -7 9 -15 0
-8 -5 -15 -10 -15 -6 0 -5 -5 1 -12 28 -36 -3 -98 -50 -98 -10 0 -18 -5 -18
-10 0 -6 15 -8 40 -4 l40 7 1 -89 c1 -49 2 -102 4 -119 1 -16 3 -53 4 -81 1
-49 3 -53 36 -68 20 -10 44 -14 55 -11 13 4 20 2 20 -7 0 -10 2 -10 9 1 6 9
30 14 76 14 41 0 62 3 54 8 -10 6 -4 9 17 9 16 0 35 5 40 10 6 6 24 13 40 15
16 3 41 8 57 11 22 5 27 3 28 -12 0 -11 3 -14 6 -6 8 21 31 13 37 -13 7 -28
26 -25 26 5 0 10 7 21 16 24 13 5 15 1 12 -24 -3 -22 0 -30 10 -30 11 0 13 8
9 30 -7 31 3 42 39 47 17 3 25 -5 35 -29 11 -30 13 -31 16 -10 3 12 8 22 12
22 4 0 6 14 3 30 -3 24 -1 30 14 30 12 0 15 3 8 10 -14 14 -64 -5 -64 -24 0
-13 -22 -15 -60 -6 -3 0 9 7 25 15 l30 13 -28 1 c-29 1 -34 20 -7 29 7 3 10 0
6 -7 -4 -6 -1 -11 8 -11 8 0 13 7 11 18 -2 9 -4 36 -4 60 -1 33 -5 42 -18 42
-11 0 -14 -3 -7 -8 6 -4 11 -24 11 -44 0 -31 -3 -38 -18 -38 -23 0 -25 18 -4
26 22 9 18 23 -5 17 -17 -5 -20 0 -20 26 0 24 -4 31 -19 31 -11 0 -22 -4 -25
-9 -4 -5 3 -7 15 -4 17 5 20 2 17 -13 -4 -25 -44 -31 -50 -7 -3 10 -6 46 -7
79 -1 45 2 63 12 67 18 7 10 67 -9 67 -10 0 -14 17 -15 68 -1 37 -3 86 -5 110
-3 33 0 42 12 42 11 0 14 5 10 16 -3 9 -6 22 -6 30 0 9 -4 12 -10 9 -5 -3 -10
-15 -10 -26 0 -10 -4 -19 -10 -19 -24 0 4 74 33 89 22 11 22 11 -2 5 -14 -4
-27 -1 -31 6 -10 16 -41 5 -35 -12 4 -10 -38 -27 -145 -61 -141 -45 -165 -57
-140 -72 6 -3 10 -1 10 5 0 6 8 10 18 9 9 -1 30 3 45 10 16 6 33 9 38 5 5 -3
9 -1 9 4 0 5 21 8 48 7 26 -1 39 0 30 2 -29 7 -21 19 30 41 46 20 79 15 55 -9
-11 -11 -5 -59 8 -59 5 0 6 -7 3 -15 -4 -8 -12 -15 -19 -15 -8 0 -17 -4 -20
-10 -4 -6 2 -7 18 -1 23 9 24 8 24 -30 0 -22 -5 -39 -11 -39 -6 0 -5 -4 3 -9
8 -5 11 -16 8 -25 -3 -8 -2 -18 2 -21 11 -6 2 -119 -10 -123 -5 -2 -9 -8 -9
-13 0 -6 8 -5 20 1 12 6 20 7 20 1 0 -5 -6 -12 -12 -14 -10 -4 -9 -8 2 -16 13
-10 13 -12 0 -21 -8 -5 -21 -10 -27 -10 -7 0 -13 -4 -13 -9 0 -4 11 -6 25 -3
29 5 34 -12 8 -27 -17 -10 -17 -10 0 -11 15 0 16 -3 7 -20 -6 -11 -8 -26 -4
-32 4 -6 -1 -17 -11 -25 -11 -7 -13 -13 -6 -13 7 0 9 -4 6 -10 -3 -5 0 -10 7
-10 9 0 9 -3 -2 -10 -8 -5 -10 -10 -5 -10 6 0 11 -9 12 -20 1 -14 -5 -20 -20
-21 -12 -1 -38 -2 -57 -3 -131 -7 -287 -42 -207 -47 12 -1 4 -5 -18 -8 -63
-10 -85 -3 -86 28 0 24 -1 24 -9 6 -6 -13 -9 35 -7 132 1 83 -1 149 -5 146 -5
-2 -8 5 -8 15 0 11 8 22 18 26 9 3 23 9 31 12 11 5 13 0 8 -25 -4 -17 -2 -31
3 -31 5 0 7 -7 4 -15 -4 -8 -12 -15 -20 -15 -8 0 -14 -5 -14 -11 0 -6 10 -8
23 -5 12 3 17 3 10 0 -8 -3 -9 -15 -3 -35 5 -16 5 -29 1 -29 -9 0 -8 -31 2
-46 10 -18 -5 -25 -22 -11 -14 10 -14 10 -4 -4 7 -9 9 -20 5 -24 -4 -5 -1 -4
7 0 11 6 13 4 8 -8 -3 -9 -2 -19 4 -23 6 -3 8 -13 5 -21 -4 -9 -2 -12 7 -7 8
6 8 3 -1 -9 -14 -17 -9 -37 10 -37 7 0 9 57 6 185 -3 114 -1 185 5 185 5 0 5
5 -1 13 -6 7 -12 46 -13 86 l-2 74 113 29 c62 15 114 27 116 26 2 -3 34 -495
34 -525 0 -7 5 -13 10 -13 6 0 10 9 10 20 0 10 8 24 18 29 16 10 16 10 0 11
-10 0 -18 7 -18 15 0 8 8 15 18 15 14 0 14 2 3 9 -11 7 -10 10 5 14 14 3 12 5
-8 6 -22 1 -26 5 -23 23 3 12 10 25 17 30 9 5 6 8 -9 8 -13 0 -23 3 -23 6 0 3
10 14 23 25 16 14 17 17 5 13 -13 -4 -18 -1 -18 11 0 12 5 15 18 11 16 -6 16
-5 0 7 -10 8 -15 17 -11 20 3 4 -2 7 -13 7 -16 0 -17 2 -4 10 8 5 10 10 4 10
-6 0 -11 7 -11 15 0 18 14 20 19 3 3 -7 7 -3 10 8 4 18 2 21 -14 16 -18 -4
-19 -2 -9 17 7 11 17 21 24 22 7 1 2 4 -10 7 -18 6 -20 10 -12 22 8 11 12 12
16 3 7 -19 23 -16 16 3 -3 9 -13 14 -24 11 -14 -4 -19 0 -19 17 0 12 4 26 10
32 6 6 4 22 -8 44 -17 36 -34 41 -79 26 -18 -6 -23 -3 -23 9 0 9 -5 13 -10 10
-6 -4 -8 -10 -5 -14 2 -5 -7 -8 -22 -8 -15 0 -29 -6 -31 -12 -3 -8 -9 -8 -23
-1 -13 8 -19 7 -19 0 0 -6 -4 -8 -10 -5 -5 3 -10 1 -10 -4 0 -6 -6 -11 -14
-11 -8 0 -16 -7 -20 -15 -7 -20 -51 -4 -50 19 0 9 1 43 2 76 l2 61 33 -18 c27
-15 29 -18 12 -21 -11 -2 -24 -8 -29 -13 -6 -5 4 -5 22 0 18 5 32 7 32 4 0 -3
6 0 13 6 8 6 16 8 19 5 3 -2 23 2 44 10 22 8 66 22 98 31 l59 16 -25 17 c-14
9 -117 100 -228 202 -111 102 -206 187 -211 188 -5 2 -9 -5 -9 -15z m69 -64
c44 -41 44 -42 42 -99 l-2 -58 36 2 c19 2 39 7 43 11 4 5 -1 5 -11 2 -10 -4
-27 -2 -39 4 -19 10 -19 11 -1 26 10 8 13 12 6 9 -6 -4 -14 -2 -18 4 -6 10 7
14 35 10 24 -3 25 -9 4 -26 -18 -15 -18 -15 3 -5 27 14 36 14 28 1 -3 -5 0
-10 8 -10 8 0 17 -7 21 -15 3 -8 12 -15 21 -15 8 0 15 -6 15 -13 0 -8 12 -19
26 -25 14 -7 22 -17 19 -22 -3 -6 1 -10 9 -10 9 0 16 -6 16 -14 0 -8 13 -25
29 -39 17 -14 27 -28 23 -32 -4 -4 4 -4 17 0 21 6 22 5 10 -7 -7 -8 -21 -13
-30 -11 -9 3 -22 -2 -30 -9 -8 -7 -22 -14 -31 -14 -35 -2 -39 -4 -33 -14 3 -6
-1 -7 -9 -4 -9 3 -16 10 -16 16 0 5 -4 6 -10 3 -5 -3 -27 3 -49 14 -33 17 -45
19 -71 10 -17 -6 -34 -9 -37 -5 -7 7 42 26 69 26 18 0 19 2 7 16 -12 15 -11
16 11 10 23 -6 23 -6 5 5 -11 6 -27 20 -36 31 -15 19 -16 18 -28 -22 -7 -22
-17 -43 -24 -45 -7 -2 -50 -17 -95 -34 -91 -34 -113 -38 -94 -19 8 8 12 51 12
129 l0 117 80 38 c44 20 80 41 80 47 0 5 -6 5 -13 -2 -8 -6 -17 -8 -20 -4 -4
3 1 12 11 20 15 13 15 13 -6 3 -12 -6 -20 -15 -17 -21 4 -5 0 -9 -8 -9 -8 0
-20 -7 -27 -15 -7 -8 -20 -15 -29 -15 -12 0 -10 5 9 20 15 12 18 18 8 14 -10
-3 -18 -1 -18 5 0 6 6 12 13 12 6 1 19 2 27 3 8 0 14 9 12 18 -2 13 2 16 15
12 14 -5 15 -4 4 4 -21 15 -45 4 -30 -14 8 -9 8 -14 1 -14 -18 0 -24 18 -12
40 6 11 14 20 18 20 4 0 27 -19 51 -41z m-189 -282 c0 -4 5 -5 10 -2 6 3 10 2
10 -4 0 -16 -13 -19 -37 -10 -28 10 -30 25 -3 25 11 0 20 -4 20 -9z m7 -32
c13 1 19 -3 16 -11 -5 -12 -53 -14 -53 -2 0 4 -7 5 -15 2 -25 -10 -17 -22 13
-18 15 2 33 -1 41 -5 14 -9 7 -31 -10 -31 -6 0 -8 4 -5 8 2 4 -10 8 -27 7 -22
0 -33 5 -35 16 -4 22 27 52 42 41 6 -5 21 -8 33 -7z m265 -107 c-4 -69 -12
-87 -38 -88 -6 0 -21 26 -35 57 -13 32 -25 60 -27 64 -3 7 71 36 93 38 7 1 9
-25 7 -71z m-269 40 c9 -1 17 -5 17 -8 0 -3 11 -6 25 -6 14 -1 22 2 19 7 -3 5
1 6 8 4 7 -3 19 -15 26 -26 12 -19 11 -20 -6 -15 -11 4 -37 9 -58 11 -20 3
-43 10 -51 16 -9 8 -13 8 -13 1 0 -8 -9 -8 -30 -1 -16 6 -30 14 -30 19 0 6 17
6 93 -2z m302 -144 c29 -19 32 -34 8 -34 -15 0 -14 -2 3 -14 18 -14 18 -15 1
-22 -14 -5 -15 -9 -6 -15 10 -6 10 -11 0 -23 -11 -14 -11 -16 4 -16 25 0 14
-34 -12 -38 -17 -3 -24 3 -29 22 -7 29 -1 92 11 120 6 15 5 17 -5 11 -8 -5
-11 -4 -6 3 3 5 0 13 -6 15 -10 4 -10 6 0 6 7 1 24 -6 37 -15z m428 -144 c-3
-11 -12 -20 -20 -20 -8 0 -12 3 -10 8 2 4 7 15 10 25 9 24 27 12 20 -13z m59
-228 c3 -4 10 -29 13 -56 7 -44 6 -48 -11 -43 -11 3 -33 8 -50 12 -28 5 -33
11 -36 43 -7 56 -1 65 41 57 20 -4 39 -10 43 -13z"/>
<path d="M1728 1974 c-24 -12 -28 -21 -28 -58 l0 -44 30 11 c28 10 30 15 30
59 0 26 -1 48 -2 48 -2 -1 -15 -8 -30 -16z"/>
<path d="M1657 1947 c-22 -9 -27 -16 -23 -32 3 -11 6 -29 6 -40 1 -19 1 -19
19 3 13 15 21 18 24 10 3 -7 6 6 6 30 1 23 0 42 -1 41 -2 -1 -16 -6 -31 -12z"/>
<path d="M1781 1865 c0 -16 3 -24 6 -18 3 9 10 10 21 4 21 -10 80 -12 86 -2 3
3 -12 6 -32 5 -20 -1 -45 3 -55 8 -17 9 -17 11 -2 22 15 10 14 12 -4 12 -17 0
-21 -6 -20 -31z"/>
<path d="M1827 1886 c-3 -7 14 -11 45 -12 35 0 45 2 33 8 -9 6 -23 7 -31 4 -8
-3 -14 -2 -14 3 0 12 -29 9 -33 -3z"/>
<path d="M1690 1853 c-35 -13 -67 -27 -70 -30 -5 -6 24 0 53 12 12 5 17 2 18
-11 1 -14 3 -13 9 6 7 21 8 18 9 -19 1 -40 3 -43 24 -37 12 3 25 6 29 6 3 0 6
23 5 50 0 28 -3 49 -6 49 -3 -1 -35 -12 -71 -26z"/>
<path d="M1904 1832 c3 -6 1 -12 -6 -15 -7 -2 -5 -3 5 -1 10 1 31 -1 47 -6 22
-6 28 -5 24 5 -3 8 -12 11 -19 9 -7 -3 -23 0 -35 6 -13 7 -20 8 -16 2z"/>
<path d="M1640 1783 c0 -13 9 -18 30 -19 23 -1 30 3 30 17 0 14 -7 19 -30 19
-22 0 -30 -5 -30 -17z"/>
<path d="M2527 1983 c-24 -38 -53 -85 -66 -106 -18 -30 -28 -37 -45 -32 -15 4
-14 2 7 -10 25 -15 37 -35 19 -35 -11 0 -55 30 -68 47 -7 8 -19 11 -29 6 -18
-6 -18 -7 0 -13 16 -6 11 -10 -25 -23 -27 -10 -33 -15 -15 -11 17 3 35 7 42 8
7 1 15 5 19 9 10 10 45 -13 38 -25 -5 -7 -2 -8 6 -3 8 5 20 -1 32 -16 11 -13
17 -18 13 -10 -6 10 -2 11 16 6 32 -10 31 -8 20 -39 -9 -23 -8 -26 9 -26 22 0
27 16 8 23 -7 2 -11 7 -7 10 3 4 41 -17 85 -45 43 -29 90 -58 103 -65 13 -7
56 -37 95 -66 98 -72 216 -149 216 -140 0 8 -220 162 -388 271 -53 35 -100 72
-104 82 -4 11 -12 20 -18 20 -5 0 -18 8 -28 18 -17 17 -15 21 40 107 75 117
80 125 73 125 -3 0 -24 -30 -48 -67z"/>
<path d="M1900 1988 c3 -2 30 -26 60 -53 54 -49 54 -49 15 -6 -22 23 -49 47
-60 53 -11 6 -18 9 -15 6z"/>
<path d="M1210 1887 c0 -7 9 -13 20 -14 11 -1 20 4 20 13 0 8 -9 14 -20 14
-11 0 -20 -6 -20 -13z"/>
<path d="M2201 1863 c13 -16 25 -30 26 -32 1 -2 10 0 20 4 10 5 24 9 31 11 23
4 27 14 6 14 -11 0 -26 -6 -33 -12 -10 -11 -16 -8 -33 15 -11 15 -25 27 -31
27 -6 0 0 -12 14 -27z"/>
<path d="M886 1871 c-3 -5 8 -23 24 -41 17 -18 30 -36 30 -42 0 -5 5 -6 12 -2
6 4 8 3 5 -2 -3 -5 4 -21 15 -34 11 -14 16 -18 12 -10 -4 8 4 5 18 -7 13 -13
33 -23 44 -23 17 0 17 2 -5 19 -18 14 -21 20 -10 24 11 4 11 6 -2 6 -8 1 -26
12 -39 26 l-23 25 26 -13 c15 -6 27 -15 27 -19 0 -5 15 -8 34 -8 18 0 39 -7
46 -15 7 -8 17 -15 23 -15 17 0 -35 40 -60 46 -13 4 -23 10 -23 16 0 5 -4 6
-10 3 -5 -3 -10 -2 -10 4 0 5 -14 12 -30 16 -17 4 -43 18 -57 31 -28 26 -39
29 -47 15z"/>
<path d="M1138 1859 c-29 -11 -44 -37 -29 -52 5 -5 17 -4 31 3 15 8 20 8 16 1
-4 -6 -2 -11 3 -11 6 0 11 7 11 15 0 19 14 19 32 2 7 -8 19 -12 26 -9 6 2 12
-1 12 -7 0 -6 -6 -11 -12 -11 -7 -1 -2 -7 12 -15 30 -17 22 -19 -17 -4 -37 14
-114 19 -107 7 4 -5 15 -7 26 -5 11 3 38 -1 60 -9 61 -21 92 -4 81 46 -4 19
-60 42 -69 29 -9 -15 -27 -10 -21 5 4 11 -16 30 -26 25 -1 0 -14 -5 -29 -10z"/>
<path d="M825 1772 c-9 -21 -31 -69 -50 -107 -19 -38 -32 -71 -30 -74 4 -4 82
156 98 202 12 34 -3 16 -18 -21z"/>
<path d="M870 1723 c-142 -297 -217 -464 -207 -463 1 0 20 6 41 14 35 12 37
14 18 21 -12 3 -20 11 -16 16 3 6 15 4 30 -6 21 -14 24 -14 24 0 0 8 5 15 11
15 5 0 7 -4 4 -10 -10 -17 12 -11 26 7 13 15 10 15 -33 9 -29 -4 -49 -3 -53 4
-3 5 2 10 12 11 11 0 13 3 5 6 -18 7 -4 23 16 17 10 -4 13 -2 7 3 -6 4 -12 19
-13 33 -1 18 1 21 8 10 5 -8 12 -11 16 -8 3 4 19 1 35 -8 26 -13 28 -13 22 3
-5 12 -2 15 9 11 9 -4 21 -1 28 5 10 9 11 9 6 0 -4 -7 -2 -13 3 -13 9 0 9 -19
2 -48 -1 -1 -11 3 -23 9 l-23 12 20 -21 20 -20 23 21 c12 11 22 16 22 10 0 -5
7 -10 15 -10 24 0 17 14 -10 21 -23 6 -24 8 -10 22 8 8 15 20 15 25 0 5 12 9
28 9 20 0 23 3 12 10 -23 14 -5 23 22 10 22 -11 22 -10 4 4 -11 9 -17 19 -13
22 4 4 13 1 22 -6 10 -8 15 -9 15 -1 0 6 -5 11 -11 11 -6 0 -9 7 -5 15 4 11
-1 15 -17 15 -15 0 -18 -3 -9 -9 10 -6 10 -11 -3 -21 -16 -13 -125 -54 -130
-48 -1 2 0 48 3 103 l4 100 52 23 c62 27 66 27 66 1 0 -11 3 -18 8 -16 4 3 13
-1 20 -9 7 -8 10 -14 6 -14 -4 0 5 -13 20 -29 16 -16 25 -34 22 -40 -4 -6 -3
-11 2 -11 9 0 72 -92 72 -105 0 -4 -7 -5 -14 -2 -11 4 -13 1 -9 -10 5 -14 0
-15 -33 -10 -21 3 -33 3 -26 0 6 -2 12 -9 12 -14 0 -10 -55 -1 -84 13 -28 15
-40 -12 -16 -34 14 -13 25 -16 37 -9 10 5 36 13 58 19 35 8 102 32 114 39 2 1
-8 19 -23 38 -15 20 -72 101 -126 181 l-98 144 -32 -67z m56 -10 c-3 -8 -2
-11 3 -8 5 3 12 1 15 -4 3 -5 -2 -11 -12 -14 -9 -2 -25 -8 -34 -12 -13 -5 -18
-2 -18 10 0 10 5 13 12 9 8 -5 9 -2 4 11 -4 11 -2 22 6 26 17 10 31 0 24 -18z
m-109 -254 c4 -52 -2 -61 -32 -47 -29 13 -31 25 -9 56 8 12 12 27 8 33 -5 8
-2 9 11 1 11 -6 20 -24 22 -43z"/>
<path d="M2320 1780 c-11 -7 -11 -10 -2 -10 7 0 10 -5 6 -12 -4 -6 -3 -8 3 -5
6 4 13 0 17 -8 3 -8 10 -15 17 -15 6 0 9 7 5 15 -6 18 15 20 31 4 9 -9 11 -7
9 7 -2 11 -11 18 -20 18 -9 -1 -16 2 -16 7 0 12 -31 11 -50 -1z"/>
<path d="M2420 1751 c0 -6 9 -16 20 -24 11 -8 17 -17 12 -22 -4 -5 -1 -5 6 -1
18 11 15 22 -13 40 -14 9 -25 12 -25 7z"/>
<path d="M53 1677 c-38 -30 -53 -49 -53 -67 l0 -24 15 21 c8 12 31 31 51 44
30 18 38 19 45 8 5 -8 9 -18 9 -22 0 -5 16 -34 35 -65 161 -258 228 -379 226
-408 -1 -18 4 -34 12 -37 10 -4 11 -20 7 -67 l-6 -62 32 4 c18 2 30 0 28 -4
-3 -4 3 -8 14 -8 10 0 24 11 31 23 9 18 19 23 37 19 13 -2 24 -11 24 -18 0 -8
5 -14 11 -14 14 0 4 60 -13 75 -8 7 -9 5 -5 -7 5 -14 1 -16 -24 -13 -17 2 -29
-1 -29 -8 0 -8 -3 -8 -12 1 -8 8 -8 15 0 25 7 8 9 17 6 20 -12 11 -24 -4 -24
-29 0 -17 -6 -24 -19 -24 -20 0 -36 36 -20 46 5 3 9 14 9 25 0 10 5 19 10 19
6 0 10 4 10 10 0 5 -7 7 -15 4 -9 -4 -15 -1 -15 7 0 7 -61 121 -137 252 -75
132 -144 257 -155 278 -10 22 -22 39 -26 39 -4 -1 -31 -20 -59 -43z"/>
<path d="M2357 1713 c-2 -4 -2 -17 0 -28 10 -43 10 -70 -1 -77 -7 -5 -6 -8 4
-8 13 0 13 -1 0 -10 -11 -7 -11 -10 -2 -10 7 0 10 -4 7 -10 -3 -6 4 -10 17
-10 16 0 19 3 10 9 -7 4 -13 25 -12 47 1 66 -11 118 -23 97z"/>
<path d="M1021 1691 c-9 -6 -10 -11 -2 -15 6 -4 11 -2 11 5 0 8 4 8 15 -1 8
-7 15 -19 15 -27 0 -13 -2 -13 -17 -2 -14 12 -14 10 1 -13 20 -31 29 -36 20
-13 -10 25 21 7 36 -21 7 -13 17 -24 22 -24 5 0 7 -4 4 -9 -7 -10 20 -48 29
-40 3 4 -1 14 -10 23 -9 9 -12 16 -7 16 5 0 9 6 9 14 0 8 -6 12 -13 9 -7 -2
-15 5 -19 16 -3 12 -11 21 -16 21 -6 0 -8 10 -4 23 4 15 3 18 -3 8 -7 -9 -12
-10 -16 -2 -4 6 -4 11 -1 11 4 0 0 7 -9 15 -17 17 -25 18 -45 6z"/>
<path d="M2465 1671 c-11 -5 -26 -6 -34 -3 -7 3 -17 -1 -22 -9 -12 -19 -11
-29 1 -29 6 0 10 7 10 15 0 13 4 13 22 3 36 -21 48 -40 35 -58 -6 -8 -1 -6 11
4 20 18 21 21 7 29 -12 6 -15 17 -11 33 4 13 5 24 4 23 -2 0 -12 -4 -23 -8z"/>
<path d="M1887 1622 c-23 -58 -21 -76 4 -27 11 22 18 47 17 55 -2 8 -11 -4
-21 -28z"/>
<path d="M923 1643 c-15 -6 -17 -73 -3 -73 11 0 30 42 30 66 0 14 -6 16 -27 7z"/>
<path d="M1562 1625 c9 -10 31 -18 48 -18 18 0 30 -5 30 -14 0 -7 -5 -13 -12
-13 -6 0 -8 -3 -5 -7 4 -3 15 2 26 13 18 19 17 20 -6 31 -12 6 -23 7 -23 3 0
-10 -39 -1 -60 13 -10 7 -9 5 2 -8z"/>
<path d="M874 1608 c3 -13 6 -26 6 -30 0 -5 5 -8 10 -8 6 0 10 14 10 30 0 21
-5 30 -16 30 -12 0 -15 -6 -10 -22z"/>
<path d="M2571 1622 c0 -7 67 -63 204 -172 150 -118 170 -134 150 -113 -34 35
-355 293 -354 285z"/>
<path d="M1550 1584 c31 -15 33 -17 15 -24 -11 -4 -22 -4 -25 1 -3 4 -11 4
-19 0 -24 -15 16 -21 51 -8 38 14 48 35 15 34 -12 -1 -33 2 -47 6 -14 4 -9 0
10 -9z"/>
<path d="M1080 1586 c0 -20 76 -115 88 -111 8 3 25 5 39 5 15 0 23 3 19 7 -4
4 -23 7 -43 8 -31 0 -39 5 -55 35 -21 38 -48 69 -48 56z"/>
<path d="M920 1558 c-15 -6 -20 -12 -12 -15 6 -3 12 -19 12 -36 0 -41 16 -23
23 26 3 20 5 37 4 36 -1 0 -13 -5 -27 -11z"/>
<path d="M2063 1556 c-32 -10 -33 -12 -33 -64 0 -45 3 -53 16 -48 9 3 27 9 40
12 23 6 24 9 18 58 -4 28 -7 51 -8 51 0 0 -16 -4 -33 -9z"/>
<path d="M1460 1540 c-13 -9 -13 -10 0 -11 10 0 8 -3 -5 -9 -28 -12 -47 -12
-40 0 4 6 -1 7 -11 3 -15 -6 -15 -7 0 -15 21 -12 123 22 103 34 -16 10 -29 10
-47 -2z"/>
<path d="M1969 1529 c-24 -9 -25 -13 -19 -54 8 -56 11 -58 45 -45 22 8 26 15
21 33 -3 12 -6 34 -6 50 0 29 -2 30 -41 16z"/>
<path d="M870 1512 c0 -10 22 -32 32 -32 15 0 8 28 -8 34 -21 8 -24 8 -24 -2z"/>
<path d="M2367 1478 c5 -7 9 -30 9 -51 -1 -33 2 -37 24 -37 14 0 21 4 15 8 -5
4 -17 16 -25 26 -14 18 -13 18 10 12 20 -6 22 -5 8 4 -9 6 -15 19 -13 30 3 15
-2 20 -17 20 -15 0 -18 -3 -11 -12z"/>
<path d="M1256 1456 c3 -19 -1 -25 -24 -30 -99 -24 -228 -71 -166 -62 11 2 23
-2 27 -8 6 -7 7 -4 3 7 -3 11 0 17 9 17 8 0 15 -6 16 -12 0 -7 4 -4 9 7 6 13
9 15 9 5 1 -9 4 -11 9 -5 4 6 28 18 55 27 40 14 47 15 47 3 0 -9 10 -15 23
-15 17 -1 19 -2 7 -9 -8 -5 -34 -8 -57 -8 -35 2 -45 -2 -55 -21 -6 -12 -18
-20 -25 -18 -20 8 -26 -14 -9 -32 10 -12 12 -22 6 -32 -5 -8 -7 -23 -4 -33 4
-11 -1 -24 -13 -32 -17 -14 -17 -14 2 -15 11 -1 14 -4 8 -7 -19 -7 -16 -33 5
-33 15 -1 15 -2 -2 -11 -15 -9 -16 -13 -5 -20 12 -8 12 -10 0 -18 -8 -5 -12
-18 -8 -29 2 -12 0 -23 -7 -26 -7 -3 -7 -5 2 -5 6 -1 12 -6 12 -11 0 -7 -6 -7
-20 0 -14 8 -20 8 -20 0 0 -6 14 -13 31 -17 l31 -6 -23 -13 c-21 -12 -22 -13
-5 -14 19 0 19 -1 -2 -21 -12 -11 -27 -17 -32 -14 -6 3 -10 2 -10 -4 0 -18 18
-21 33 -6 20 20 26 19 23 -2 -2 -11 -17 -21 -40 -26 -29 -7 -35 -13 -31 -27 6
-20 -31 -36 -38 -16 -3 6 -9 0 -15 -14 -6 -17 -6 -29 0 -37 7 -9 7 -13 0 -13
-5 0 -12 -8 -14 -18 -5 -16 -20 -20 -112 -26 -58 -4 -113 -9 -121 -12 -9 -4
-15 0 -15 10 0 9 -5 16 -10 16 -6 0 -10 -7 -8 -16 2 -11 -5 -18 -17 -19 -11
-2 -41 -6 -67 -10 -45 -7 -48 -6 -48 14 0 11 3 21 8 21 4 0 7 37 7 82 0 110
14 369 21 380 3 4 9 6 14 3 5 -3 11 -1 15 5 3 5 10 10 15 10 11 0 1 -32 -13
-41 -5 -4 -12 -39 -15 -78 -2 -39 -9 -71 -15 -71 -5 0 -4 -6 2 -14 8 -10 9
-16 1 -21 -10 -6 -7 -45 5 -65 3 -5 1 -10 -5 -10 -6 0 -8 -12 -5 -31 4 -19 2
-28 -5 -24 -5 3 -10 1 -10 -4 0 -6 5 -11 11 -11 7 0 9 -10 7 -24 -4 -21 0 -25
27 -30 38 -7 95 3 95 16 0 7 5 6 13 -1 8 -6 17 -8 20 -4 4 3 7 1 7 -5 0 -7 5
-12 11 -12 8 0 8 4 0 14 -17 20 0 27 56 22 26 -2 54 1 61 7 10 8 14 5 19 -11
3 -12 10 -22 15 -22 6 0 7 7 4 16 -4 12 -2 15 9 10 9 -3 15 0 15 8 0 7 15 18
33 24 22 7 26 10 12 11 -17 1 -17 3 -5 11 10 6 11 10 3 10 -7 0 -13 5 -13 11
0 6 7 9 14 6 10 -4 13 -1 10 7 -9 24 -34 14 -34 -15 0 -35 -8 -40 -79 -46
l-58 -6 3 49 c2 27 6 115 10 195 l6 146 46 11 c26 6 55 14 65 17 15 6 17 0 17
-46 0 -39 3 -50 10 -39 9 13 11 13 19 1 7 -12 14 -10 36 8 25 19 26 21 7 21
-11 0 -22 -6 -24 -12 -3 -9 -9 -8 -21 4 -22 22 -22 40 0 36 10 -2 18 2 18 7 0
6 4 16 8 23 5 7 4 12 -2 12 -6 0 -11 -4 -11 -10 0 -19 -21 -10 -32 15 -13 30
-5 43 17 25 12 -10 15 -10 15 4 0 9 -7 16 -16 16 -8 0 -13 4 -10 9 6 9 -132
-31 -154 -44 -6 -4 -7 -12 -2 -21 11 -19 -11 -127 -26 -132 -7 -2 -12 -10 -12
-18 0 -9 4 -13 9 -9 13 8 21 -8 12 -23 -6 -10 -13 -10 -34 -1 -22 10 -25 15
-15 28 7 9 8 13 4 9 -5 -4 -15 -3 -23 3 -11 9 -13 -1 -13 -55 0 -36 4 -66 10
-66 5 0 7 6 4 14 -3 7 2 20 10 29 11 11 12 17 4 19 -8 3 -9 6 -1 11 16 10 54
-28 47 -47 -3 -9 -10 -16 -15 -16 -5 0 -8 -10 -8 -22 1 -17 2 -19 6 -5 2 9 8
17 12 17 11 0 5 -48 -8 -64 -11 -13 -11 -19 -1 -31 6 -8 9 -19 6 -24 -9 -14
-58 9 -52 24 2 6 -2 19 -10 30 -12 17 -14 12 -14 -47 0 -73 0 -72 -73 -83
l-45 -7 5 58 c2 33 8 112 11 177 l7 119 61 20 c34 11 61 25 61 31 -1 42 3 49
18 37 9 -7 18 -10 22 -6 3 3 1 6 -5 6 -7 0 -12 5 -12 11 0 6 9 8 23 4 17 -5
19 -4 7 4 -12 9 -13 11 -1 11 8 0 12 2 10 5 -3 2 -51 -11 -107 -30 -105 -36
-138 -42 -127 -25 3 6 1 10 -4 10 -14 0 -14 36 -1 61 6 10 8 19 5 19 -3 0 -13
-16 -21 -36 -10 -25 -27 -41 -57 -55 -26 -13 -32 -18 -16 -15 14 3 33 0 41 -7
18 -14 29 -97 13 -97 -6 0 -6 -3 1 -8 16 -11 17 -89 1 -120 -28 -54 -38 -95
-24 -104 8 -5 9 -10 1 -15 -5 -5 -11 -33 -11 -63 -1 -30 -4 -67 -8 -82 -5 -21
-3 -27 14 -33 20 -6 21 -13 20 -133 0 -70 -4 -185 -8 -257 -4 -72 -6 -132 -4
-134 8 -11 30 34 25 52 -5 18 -2 19 34 12 44 -8 186 -7 209 1 8 4 15 1 15 -5
0 -6 11 -11 25 -11 14 0 25 -4 25 -9 0 -6 23 -7 54 -4 30 3 65 3 79 -1 21 -5
24 -11 22 -39 -2 -18 -5 -39 -7 -46 -2 -7 3 -16 11 -19 9 -3 11 0 6 8 -4 7 5
4 21 -6 20 -14 29 -15 32 -6 2 7 8 10 13 6 5 -3 9 2 9 11 0 9 -5 13 -11 10 -5
-4 -21 -4 -34 -1 l-24 6 4 237 c5 235 3 252 -27 253 -4 0 -6 -22 -3 -50 3 -27
1 -50 -4 -50 -9 0 -7 -28 4 -71 8 -31 -4 -43 -23 -23 -7 8 -8 14 -2 14 5 0 10
6 10 13 0 8 -7 14 -15 14 -10 0 -15 -10 -15 -29 0 -15 5 -28 10 -28 6 0 10 -5
10 -11 0 -5 -5 -7 -12 -3 -7 4 -8 3 -4 -5 6 -9 11 -9 22 0 11 9 15 7 21 -7 4
-10 2 -19 -5 -22 -7 -2 -9 -9 -5 -15 8 -11 11 -97 5 -97 -2 0 -10 6 -18 14
-10 11 -11 15 -1 19 6 2 9 8 5 12 -13 14 -28 -7 -28 -40 l0 -34 -57 6 c-32 2
-62 6 -68 8 -6 1 -9 77 -7 209 l3 206 64 0 c37 0 65 -4 65 -10 0 -5 8 -10 18
-10 14 0 12 4 -8 20 -14 11 -33 20 -42 20 -10 0 -18 8 -18 18 -1 16 -1 16 -11
-1 -6 -10 -20 -17 -32 -16 -38 2 -45 0 -50 -21 -3 -11 -12 -20 -21 -20 -9 0
-16 -4 -16 -10 0 -5 6 -10 13 -10 8 0 7 -4 -3 -11 -11 -8 -12 -12 -2 -16 6 -2
12 -9 12 -14 0 -6 -4 -8 -9 -5 -5 3 -11 -1 -15 -9 -4 -10 1 -15 15 -15 12 0
19 -5 16 -12 -2 -7 -12 -12 -22 -10 -17 3 -17 2 -1 -13 9 -9 16 -29 16 -45 0
-16 3 -30 8 -33 4 -2 2 -2 -5 -1 -17 4 -28 -17 -14 -26 9 -5 7 -10 -4 -20 -15
-13 -14 -15 7 -32 15 -12 17 -16 6 -12 -22 8 -23 -5 -2 -34 18 -27 18 -28 -16
-37 -22 -5 -27 -1 -43 32 -10 21 -16 28 -13 15 3 -17 0 -22 -17 -22 -22 -1
-22 -1 -3 -15 29 -22 9 -32 -51 -27 l-53 4 0 52 c0 29 3 113 6 187 l7 134 41
4 c23 2 49 4 59 4 23 2 22 6 -5 16 -13 5 -30 5 -40 0 -11 -6 -22 -4 -32 7 -14
13 -16 13 -16 0 0 -8 -9 -18 -20 -21 -14 -4 -20 -15 -20 -33 1 -15 -1 -72 -3
-127 -3 -55 -1 -110 4 -122 5 -13 5 -23 0 -23 -5 0 -9 -17 -8 -37 1 -21 -3
-38 -10 -40 -9 -3 -12 8 -8 44 2 26 4 125 5 220 l1 171 62 12 c68 14 270 36
305 34 46 -3 52 -4 52 -13 0 -5 -8 -18 -17 -27 -17 -17 -17 -18 0 -11 11 4 17
2 17 -8 0 -8 7 -15 16 -15 10 0 14 -6 10 -15 -3 -8 -2 -15 2 -15 15 0 27 16
30 40 1 14 6 26 11 28 4 1 17 9 27 18 17 13 14 14 -36 12 -48 -2 -55 0 -58 18
-4 26 35 83 77 111 39 27 117 31 166 9 28 -13 27 -13 -30 -9 -49 3 -66 0 -94
-17 -18 -12 -31 -23 -29 -25 2 -3 29 1 60 7 49 10 59 10 83 -6 15 -10 24 -13
21 -7 -9 13 -4 14 28 1 43 -16 41 8 -2 49 l-41 37 35 -4 c27 -3 33 -1 29 11
-5 11 0 13 19 10 22 -5 26 -11 26 -39 0 -23 6 -37 20 -44 15 -8 18 -8 15 3 -4
8 3 13 15 14 12 1 20 -4 20 -13 0 -16 -79 -54 -113 -54 -12 0 -29 -5 -37 -11
-16 -10 45 -3 85 11 11 3 28 5 38 2 18 -4 23 -27 7 -37 -5 -3 -10 -1 -10 6 0
19 -96 3 -127 -20 -35 -29 -10 -37 48 -16 24 9 51 19 59 21 13 4 15 -16 13
-150 -2 -142 0 -156 15 -156 15 0 18 -13 20 -105 2 -62 -1 -105 -7 -105 -5 0
-12 6 -14 13 -3 6 -6 -6 -6 -28 -1 -29 2 -36 9 -25 12 18 13 12 10 -68 -1 -53
8 -64 34 -40 8 8 11 30 8 67 -4 51 -3 55 12 42 10 -8 53 -16 109 -19 70 -5 85
-8 62 -14 -23 -6 -21 -6 10 -2 22 3 62 5 88 4 32 -1 47 3 42 9 -3 6 -12 11
-18 11 -7 0 -20 12 -29 28 l-17 27 -1 -31 0 -30 -52 7 c-29 4 -77 8 -105 8
l-53 1 -1 193 c0 105 -2 222 -3 260 l-3 67 52 0 c29 0 73 3 99 6 38 6 46 4 46
-10 0 -9 5 -16 11 -16 6 0 8 7 5 16 -4 10 -2 13 7 9 6 -4 3 1 -8 10 -14 12
-31 15 -57 11 -24 -4 -38 -2 -41 7 -4 9 -6 9 -6 0 -1 -7 -10 -13 -21 -13 -17
0 -19 3 -10 19 14 27 13 31 -11 31 -15 0 -19 -5 -15 -15 6 -17 -20 -34 -46
-30 -17 3 -19 -1 -23 -57 0 -9 -4 -20 -7 -24 -4 -4 -3 -15 3 -25 7 -15 6 -17
-6 -13 -8 4 -15 18 -16 33 0 14 -3 53 -5 86 l-4 60 148 18 c81 9 163 20 182
23 l35 6 -2 -39 c-1 -21 -2 -41 -2 -44 -1 -3 -14 -4 -31 -1 -30 4 -36 -5 -31
-45 1 -7 -3 -13 -9 -13 -7 0 -8 -6 0 -19 7 -14 6 -21 -3 -25 -6 -3 -3 -4 8 -3
11 1 19 -3 18 -10 -2 -7 8 -10 27 -6 29 4 30 3 30 -35 0 -26 5 -42 15 -46 8
-3 15 -10 15 -16 0 -5 -7 -10 -15 -10 -17 0 -18 -23 -8 -172 4 -72 10 -98 20
-98 9 0 13 14 13 45 0 25 -4 45 -9 45 -4 0 -8 25 -8 55 0 30 3 55 7 55 3 0 5
44 4 98 l-3 97 -40 -3 -41 -3 0 40 c0 40 9 48 44 42 4 -1 17 1 28 5 18 5 18 7
3 24 -13 14 -16 37 -14 113 2 113 -7 130 -62 117 l-34 -8 38 -1 37 -1 0 -60
c0 -33 -4 -60 -8 -60 -5 0 -60 -7 -123 -15 -63 -9 -141 -18 -173 -21 l-59 -5
6 37 6 36 -40 -6 c-39 -6 -40 -5 -33 16 4 13 6 118 6 235 -1 130 2 214 8 218
6 3 10 15 10 25 0 19 -49 40 -92 40 -10 0 -18 5 -18 11 0 6 9 8 21 4 16 -5 19
-4 14 6 -6 9 -2 11 12 7 13 -3 20 0 20 9 0 8 -6 12 -14 8 -8 -3 -21 -5 -28 -5
-8 0 -22 -8 -31 -17 -17 -17 -18 -17 -11 1 5 12 3 23 -5 28 -24 15 -37 9 -32
-16z m92 -82 l23 -7 -2 -218 c-1 -121 -4 -219 -8 -219 -21 1 -32 20 -28 49 3
17 1 31 -4 31 -5 0 -9 -10 -10 -22 -1 -30 -6 -59 -12 -64 -3 -3 -37 -7 -77 -9
l-73 -4 6 187 c4 103 7 199 7 213 0 24 5 27 58 38 31 6 64 16 72 21 18 11 18
12 48 4z m-538 -473 c0 -5 11 -12 25 -15 35 -9 31 -26 -5 -26 -17 0 -30 -5
-30 -12 0 -9 -3 -8 -12 1 -10 11 -10 14 0 18 6 3 12 9 12 14 0 6 -4 7 -10 4
-6 -3 -7 1 -4 9 7 17 24 22 24 7z m-226 -123 c-3 -29 -8 -55 -11 -58 -3 -3 -4
12 -1 33 2 20 0 37 -5 37 -5 0 -4 6 2 13 6 8 8 17 4 20 -3 4 -1 7 5 7 8 0 10
-17 6 -52z m855 -245 c1 -22 -4 -33 -13 -33 -8 0 -13 8 -11 18 2 9 4 33 5 52
1 29 3 32 10 15 5 -11 9 -35 9 -52z m51 -123 c0 -99 -4 -160 -10 -160 -6 0
-10 61 -9 160 0 91 4 160 10 160 5 0 9 -68 9 -160z"/>
<path d="M1260 1290 c0 -22 4 -40 9 -40 28 0 41 14 41 46 0 30 -3 34 -25 34
-22 0 -25 -4 -25 -40z"/>
<path d="M1217 1313 c-4 -3 -7 -21 -7 -40 0 -26 4 -33 20 -33 17 0 20 7 20 40
0 38 -14 52 -33 33z"/>
<path d="M1260 1196 c0 -39 2 -44 20 -39 16 4 20 14 20 44 0 32 -3 39 -20 39
-17 0 -20 -7 -20 -44z"/>
<path d="M1229 1193 c-1 -28 -3 -31 -6 -13 -3 14 -9 30 -15 35 -8 7 -9 4 -4
-8 3 -10 6 -29 6 -43 0 -16 4 -22 14 -18 15 6 27 84 14 84 -5 0 -9 -17 -9 -37z"/>
<path d="M1272 1143 c-19 -4 -21 -7 -11 -19 6 -8 9 -25 7 -39 -4 -19 -1 -25
13 -25 16 0 19 8 19 45 0 25 -1 44 -2 44 -2 -1 -13 -4 -26 -6z"/>
<path d="M1198 1123 c7 -2 12 -22 12 -45 0 -32 3 -39 16 -34 9 3 17 6 18 6 1
0 0 19 -3 43 -3 33 -5 38 -12 22 -6 -17 -8 -17 -8 -2 -1 10 -8 17 -18 16 -11
0 -13 -3 -5 -6z"/>
<path d="M1322 1068 c2 -26 9 -43 18 -46 13 -5 13 -3 1 11 -7 10 -11 30 -9 47
3 16 1 30 -4 30 -5 0 -8 -19 -6 -42z"/>
<path d="M1239 1013 c-2 -24 -2 -25 -6 -5 -7 37 -23 25 -23 -18 0 -33 3 -40
20 -40 17 0 20 7 20 45 0 49 -9 63 -11 18z"/>
<path d="M1260 995 c0 -48 0 -48 24 -39 11 4 16 19 16 45 0 32 -3 39 -20 39
-17 0 -20 -7 -20 -45z"/>
<path d="M1413 1455 c-10 -8 -15 -17 -10 -21 4 -4 14 1 21 12 15 19 15 19 31
-1 9 -11 14 -14 10 -7 -3 6 -1 12 4 12 6 0 11 4 11 9 0 13 -47 10 -67 -4z"/>
<path d="M2101 1445 c-2 -5 -2 -23 -1 -38 1 -15 -4 -35 -11 -43 -13 -16 -7
-27 13 -22 10 2 12 17 7 58 -3 30 -7 51 -8 45z"/>
<path d="M1633 1433 c-8 -3 -13 -23 -13 -50 0 -37 3 -44 16 -39 9 3 20 6 25 6
5 0 9 20 9 45 0 44 -6 51 -37 38z"/>
<path d="M2031 1413 c1 -51 15 -92 27 -84 9 6 10 15 3 33 -5 14 -7 35 -4 47 4
15 1 21 -11 21 -9 0 -16 -8 -15 -17z"/>
<path d="M1568 1413 c-31 -8 -15 -83 17 -83 11 0 15 12 15 45 0 25 -3 44 -7
44 -5 -1 -16 -3 -25 -6z"/>
<path d="M1983 1413 c-18 -3 -22 -12 -25 -55 -1 -27 1 -53 6 -56 5 -3 1 -9
-10 -13 -17 -7 -17 -8 -1 -8 15 -1 18 -8 15 -38 -2 -21 2 -38 7 -38 9 0 10 72
2 164 -1 13 4 26 11 28 6 3 12 -4 13 -14 0 -16 1 -16 9 2 11 26 12 35 3 34 -5
-1 -18 -4 -30 -6z"/>
<path d="M2455 1412 c14 -10 17 -32 4 -32 -5 0 -7 -5 -3 -12 5 -8 1 -9 -12 -4
-14 5 -16 4 -8 -4 13 -13 46 -2 37 13 -4 7 1 8 13 4 18 -7 18 -7 0 8 -14 11
-16 15 -5 15 12 0 12 2 -1 10 -18 12 -40 14 -25 2z"/>
<path d="M1 1343 c1 -53 3 -61 9 -38 11 45 11 105 0 105 -6 0 -10 -28 -9 -67z"/>
<path d="M2378 1372 c16 -11 11 -82 -5 -82 -7 0 -13 -4 -13 -10 0 -6 9 -6 23
-1 22 8 23 12 18 81 0 12 -8 20 -18 20 -13 0 -14 -3 -5 -8z"/>
<path d="M2010 1268 c0 -91 -1 -96 -20 -91 -19 5 -20 1 -19 -58 1 -65 3 -64
14 4 8 48 25 38 25 -14 0 -21 4 -39 10 -39 5 0 7 21 3 50 -4 34 -2 50 6 50 6
0 11 5 11 11 0 5 -4 7 -10 4 -6 -4 -9 26 -9 80 0 48 -2 89 -5 93 -3 3 -6 -38
-6 -90z"/>
<path d="M2490 1349 c-13 -9 -12 -10 2 -5 15 5 17 0 15 -35 -2 -22 1 -44 7
-48 8 -6 11 4 11 34 0 50 -13 70 -35 54z"/>
<path d="M354 1332 c4 -7 13 -12 21 -12 7 0 15 -6 18 -12 3 -10 7 -10 17 -1
16 15 54 -2 44 -19 -4 -5 0 -14 7 -19 11 -7 10 -9 -4 -9 -14 0 -15 -3 -5 -19
7 -11 21 -22 32 -25 20 -5 20 -5 0 -27 -19 -22 -19 -22 1 -15 47 19 55 18 64
-5 9 -22 10 -22 10 9 1 26 -3 33 -16 31 -36 -3 -42 2 -59 49 -23 63 -32 72
-63 71 -14 0 -37 3 -50 7 -17 5 -22 4 -17 -4z"/>
<path d="M2460 1330 c0 -6 -3 -9 -7 -7 -5 3 -14 -1 -21 -9 -7 -8 -8 -14 -2
-14 5 0 10 -8 10 -18 0 -14 -7 -18 -27 -17 -22 2 -23 1 -4 -2 13 -3 26 -13 28
-24 10 -36 21 -19 17 25 -3 34 0 47 12 54 11 6 13 11 5 16 -6 4 -11 2 -11 -4z"/>
<path d="M1638 1285 c3 -29 9 -45 17 -45 9 0 13 14 13 45 0 35 -3 45 -16 45
-14 0 -16 -8 -14 -45z"/>
<path d="M2095 1319 c-11 -4 -14 -8 -7 -8 8 -1 12 -18 12 -51 0 -38 4 -50 15
-50 16 0 18 22 7 81 -6 31 -10 35 -27 28z"/>
<path d="M1585 1308 c-2 -7 -5 -30 -7 -51 -3 -30 -1 -37 11 -35 19 4 29 98 11
98 -6 0 -12 -6 -15 -12z"/>
<path d="M2038 1298 c7 -7 12 -31 12 -55 0 -44 5 -49 30 -33 10 6 11 10 3 10
-9 0 -13 16 -13 45 0 40 -3 45 -22 45 -17 0 -19 -3 -10 -12z"/>
<path d="M2487 1240 c3 -14 8 -27 12 -30 15 -10 21 -42 11 -60 -7 -13 -7 -21
0 -25 16 -10 12 -25 -7 -26 -11 0 -13 -3 -5 -6 6 -2 12 -11 12 -19 0 -8 5 -14
11 -14 8 0 7 -6 -2 -17 -11 -13 -11 -17 -1 -20 13 -5 17 -33 4 -33 -4 0 -13 5
-20 12 -7 7 -12 8 -12 3 0 -6 -4 -4 -9 3 -7 11 -9 11 -14 0 -3 -8 0 -15 6 -16
7 0 30 -4 52 -8 37 -7 39 -6 26 10 -8 9 -14 30 -13 46 0 17 -3 30 -7 30 -5 0
-7 38 -5 85 2 77 1 85 -16 85 -10 0 -20 6 -23 13 -2 6 -2 1 0 -13z"/>
<path d="M982 1251 c-8 -5 -12 -22 -10 -44 2 -27 6 -34 16 -28 8 5 12 22 10
44 -2 27 -6 34 -16 28z"/>
<path d="M920 1231 c0 -20 20 -61 30 -61 5 0 10 16 10 35 0 28 -4 35 -20 35
-11 0 -20 -4 -20 -9z"/>
<path d="M2841 1231 c-8 -6 -4 -13 14 -25 35 -23 47 -16 20 10 -13 13 -27 19
-34 15z"/>
<path d="M1642 1175 c1 -36 5 -45 20 -45 11 0 18 7 18 20 0 13 -5 18 -15 14
-12 -5 -14 0 -9 25 4 20 3 31 -5 31 -7 0 -11 -17 -9 -45z"/>
<path d="M1700 1110 c0 -93 3 -111 18 -120 16 -11 16 -11 -2 -6 -20 7 -194
-21 -211 -33 -5 -4 -26 -8 -44 -10 -69 -4 -42 -11 37 -10 45 1 85 5 88 10 3 5
16 6 29 3 12 -3 26 -1 29 5 4 6 22 11 39 11 47 0 60 12 48 42 -5 15 -6 30 0
39 12 19 11 32 -1 24 -14 -9 -12 18 3 34 10 11 10 13 0 7 -16 -9 -16 -1 -3 25
6 11 7 19 1 19 -5 0 -8 11 -7 25 0 14 4 25 9 25 4 0 7 5 7 10 0 6 -9 10 -20
10 -19 0 -20 -7 -20 -110z"/>
<path d="M1582 1165 c2 -25 2 -45 1 -45 -1 0 -9 12 -18 28 -15 26 -15 26 -9 2
4 -14 12 -28 18 -32 25 -17 34 -6 38 42 3 43 0 50 -16 50 -15 0 -17 -7 -14
-45z"/>
<path d="M2114 1168 c7 -39 -6 -63 -28 -55 -19 8 -22 63 -3 70 6 3 2 6 -10 6
-21 1 -23 -3 -23 -55 l0 -56 31 6 c17 3 37 6 43 6 7 0 10 19 8 55 -2 30 -8 55
-14 55 -6 0 -8 -13 -4 -32z"/>
<path d="M747 1173 c-14 -13 -7 -63 8 -63 10 0 15 11 15 35 0 33 -8 43 -23 28z"/>
<path d="M1011 1070 c1 -87 4 -110 15 -110 8 0 14 5 14 11 0 6 9 8 20 4 15 -5
18 -3 14 9 -5 12 -11 13 -24 6 -10 -6 -20 -10 -23 -10 -9 0 -3 36 7 43 8 5 7
10 -3 16 -8 5 -9 11 -3 15 6 3 9 17 7 31 -2 25 2 28 40 26 12 0 6 5 -13 12
l-33 13 20 18 c19 17 21 17 21 3 0 -10 6 -17 13 -17 8 0 14 7 14 15 0 8 -4 12
-8 9 -4 -2 -10 -1 -13 4 -2 4 -18 9 -36 10 l-31 2 2 -110z"/>
<path d="M705 1148 c12 -39 25 -44 25 -10 0 22 -5 32 -16 32 -11 0 -14 -6 -9
-22z"/>
<path d="M744 1084 c3 -9 6 -25 7 -37 0 -21 1 -21 9 -2 14 32 11 55 -6 55 -11
0 -14 -5 -10 -16z"/>
<path d="M1581 1050 c1 -41 5 -50 18 -48 24 5 24 98 -1 98 -15 0 -17 -9 -17
-50z"/>
<path d="M1640 1044 c0 -32 2 -35 23 -28 29 9 29 8 18 35 -9 21 -10 22 -11 4
0 -16 -2 -17 -9 -5 -6 8 -7 18 -5 22 3 4 0 8 -5 8 -6 0 -11 -16 -11 -36z"/>
<path d="M918 1027 c2 -21 9 -34 18 -34 17 0 17 6 2 40 -17 36 -25 34 -20 -6z"/>
<path d="M749 1017 c-5 -12 -2 -67 4 -67 4 0 7 15 7 33 0 17 4 27 8 22 9 -13
27 -13 39 -1 5 5 3 6 -4 2 -7 -4 -13 -3 -13 1 0 7 -38 16 -41 10z"/>
<path d="M2139 1000 c-17 -14 -19 -18 -6 -14 14 5 16 2 10 -12 -6 -17 -5 -17
9 -6 9 7 29 18 45 23 25 8 24 9 -10 5 -33 -4 -37 -3 -27 9 18 21 6 18 -21 -5z"/>
<path d="M2236 986 c-19 -19 -19 -19 2 -14 17 5 22 1 23 -13 1 -10 2 -26 3
-35 1 -12 -8 -17 -29 -19 -17 -1 -69 -7 -115 -14 -78 -10 -180 -19 -237 -20
-13 -1 -23 -7 -23 -14 0 -14 69 -10 285 18 60 8 111 12 114 10 8 -8 9 -134 2
-162 -4 -15 -4 -40 0 -55 5 -17 3 -29 -4 -32 -7 -2 -5 -5 5 -5 14 -1 16 -12
13 -81 -2 -47 0 -78 6 -75 5 4 9 1 9 -4 0 -6 -6 -11 -12 -11 -10 0 -10 -2 0
-8 14 -9 12 -53 -3 -64 -7 -5 -7 -8 0 -8 6 0 9 -19 8 -42 -2 -63 -3 -130 -2
-240 l1 -98 39 0 c21 0 39 5 39 10 0 6 -7 10 -14 10 -11 0 -16 15 -18 53 -2
35 -7 51 -15 50 -7 -2 -13 2 -13 8 0 6 9 8 20 4 18 -6 19 -3 13 42 -3 26 -11
52 -17 56 -6 4 1 5 17 1 25 -6 27 -4 27 24 0 17 6 32 13 35 6 2 0 2 -15 0
l-28 -5 -1 74 c-1 81 -6 166 -14 246 -4 42 -2 52 10 52 10 0 15 10 15 35 0 27
-4 35 -18 35 -13 0 -17 -8 -17 -32 0 -17 -5 -33 -12 -35 -15 -5 -13 39 2 49 6
5 4 8 -5 8 -13 0 -13 2 -1 9 10 7 15 32 15 88 l1 78 65 6 c36 3 71 9 78 13 7
4 12 3 12 -2 0 -6 21 -14 48 -19 42 -8 47 -11 44 -33 -2 -20 0 -22 8 -10 5 8
10 27 10 43 0 25 -3 27 -45 27 -25 0 -45 4 -45 10 0 6 -9 6 -25 0 -14 -5 -24
-6 -24 -2 3 18 -2 32 -11 32 -5 0 -7 -6 -4 -14 4 -9 -7 -15 -38 -19 -24 -4
-53 -10 -65 -13 -22 -6 -23 -3 -23 40 0 32 -4 45 -11 40 -6 -3 -14 -2 -18 3
-3 5 -15 0 -25 -11z"/>
<path d="M965 980 c-3 -5 1 -10 11 -10 12 0 15 -7 12 -30 -3 -16 -1 -30 4 -30
4 0 8 18 8 40 0 28 -4 40 -14 40 -8 0 -18 -4 -21 -10z"/>
<path d="M922 940 c0 -25 2 -39 5 -31 5 11 7 11 14 0 6 -10 8 -6 7 13 -1 15
-5 25 -9 22 -4 -2 -10 6 -12 18 -2 13 -5 3 -5 -22z"/>
<path d="M2500 958 c0 -4 3 -8 8 -9 4 0 19 -3 35 -5 18 -3 27 0 27 8 0 8 -13
13 -35 13 -19 0 -35 -3 -35 -7z"/>
<path d="M2154 931 c17 -19 46 -19 46 -1 0 16 -22 22 -31 9 -6 -10 -9 -11 -9
-1 0 6 -5 12 -12 12 -6 0 -4 -8 6 -19z"/>
<path d="M1670 928 c19 -7 22 -11 10 -18 -9 -5 3 -6 31 -3 55 7 63 13 18 13
-20 0 -29 3 -22 8 8 5 -2 8 -25 9 -33 1 -35 0 -12 -9z"/>
<path d="M389 905 c-1 -16 -4 -49 -5 -72 -2 -39 0 -41 17 -30 19 12 19 39 -2
107 -7 25 -7 25 -10 -5z"/>
<path d="M699 924 c-5 -41 -6 -67 -2 -56 3 6 9 9 14 6 6 -3 7 6 3 23 -7 31
-13 41 -15 27z"/>
<path d="M2370 848 c0 -5 12 -8 28 -8 21 0 24 -2 12 -10 -13 -8 -12 -10 3 -10
10 0 17 8 17 20 0 15 -6 19 -30 17 -16 -1 -30 -5 -30 -9z"/>
<path d="M192 837 c-41 -11 -42 -12 -36 -41 8 -40 24 -58 24 -28 0 27 28 39
76 34 25 -3 34 -8 30 -18 -3 -8 -1 -14 3 -14 5 0 12 6 14 13 3 6 6 1 7 -13 3
-32 3 -20 -4 -141 -6 -92 -5 -106 9 -106 11 0 13 6 9 20 -4 13 -2 17 5 13 7
-5 9 -1 5 8 -3 9 -10 13 -15 10 -20 -12 5 45 25 58 7 5 4 8 -6 8 -20 0 -25 20
-5 20 8 0 7 4 -3 10 -12 8 -8 10 15 11 30 1 30 1 5 10 -16 5 12 7 83 6 59 -1
107 1 107 5 0 5 -10 9 -22 9 -18 1 -19 2 -5 6 14 4 9 9 -20 24 -53 28 -113 40
-113 24 0 -17 33 -45 53 -45 9 0 17 5 17 11 0 5 5 7 10 4 36 -22 -36 -33 -105
-15 l-30 8 28 1 c34 1 26 21 -9 21 -19 0 -24 5 -24 25 0 14 5 25 10 25 6 0 10
4 10 9 0 7 -93 44 -102 40 -2 -1 -22 -7 -46 -12z"/>
<path d="M2461 773 c2 -45 7 -84 10 -88 4 -3 16 -7 28 -8 11 -1 21 -7 21 -14
0 -9 16 -13 50 -13 48 0 63 11 38 26 -7 4 -8 3 -4 -4 5 -8 -4 -12 -28 -12 -42
0 -49 19 -8 22 86 5 104 7 117 12 8 3 22 -2 30 -11 15 -15 18 -14 38 6 l21 21
-49 1 c-28 1 -96 2 -153 2 l-102 1 1 63 c1 35 -2 67 -6 71 -4 4 -5 -30 -4 -75z"/>
<path d="M2163 825 c-7 -8 -13 -21 -13 -29 0 -8 -4 -18 -10 -21 -5 -3 -10 0
-10 7 0 10 -2 10 -8 1 -5 -7 -34 -11 -85 -9 -42 1 -77 -2 -77 -7 0 -5 -6 -4
-14 2 -11 9 -16 9 -21 0 -12 -18 17 -29 65 -24 172 17 177 17 184 -7 3 -13 6
-33 6 -45 0 -13 5 -23 11 -23 5 0 7 5 4 10 -3 6 4 11 17 11 17 1 18 3 6 6 -17
4 -22 15 -19 41 1 6 -4 12 -11 12 -9 0 -9 3 2 10 13 8 12 10 -3 10 -15 0 -17
6 -11 35 7 38 5 41 -13 20z"/>
<path d="M2405 801 c-3 -5 -1 -12 5 -16 16 -10 12 -26 -6 -23 -10 2 -19 -3
-21 -9 -3 -8 4 -13 15 -13 10 0 24 -10 30 -22 9 -20 10 -16 9 24 -1 27 -6 48
-10 48 -5 0 -5 5 -2 10 3 6 2 10 -4 10 -5 0 -12 -4 -16 -9z"/>
<path d="M2637 800 c6 -7 31 -13 56 -13 40 -2 44 -4 36 -19 -12 -22 -3 -23 18
-2 24 23 3 37 -64 42 -45 3 -55 2 -46 -8z"/>
<path d="M2770 780 c0 -6 5 -10 11 -10 5 0 8 -4 4 -9 -3 -6 4 -15 16 -21 17
-10 20 -9 14 1 -6 9 -2 11 13 7 26 -7 30 7 5 16 -10 3 -28 10 -40 16 -15 6
-23 6 -23 0z"/>
<path d="M0 766 c0 -13 11 -16 53 -16 70 0 98 -9 95 -29 -4 -20 -28 -28 -98
-32 -43 -2 -47 -3 -20 -6 19 -3 38 -10 42 -16 6 -9 8 -9 8 0 0 6 17 13 38 15
35 3 37 5 40 39 4 43 1 44 -91 54 -58 6 -67 5 -67 -9z"/>
<path d="M1195 752 c-23 -5 -55 -31 -55 -45 0 -5 11 -7 25 -5 13 3 26 2 27 -1
2 -3 15 6 30 20 24 23 26 27 10 31 -9 2 -26 2 -37 0z"/>
<path d="M1893 732 c-19 -3 -23 -10 -23 -38 0 -19 4 -34 10 -34 5 0 13 -14 18
-31 10 -41 3 -101 -11 -92 -6 3 -7 1 -3 -5 4 -7 14 -12 22 -12 13 0 13 -3 -2
-17 -15 -16 -15 -17 2 -23 12 -5 14 -9 6 -14 -14 -8 -16 -46 -3 -46 17 0 6
-35 -14 -43 -19 -9 -19 -9 3 -18 19 -7 21 -12 12 -29 -6 -11 -7 -20 -3 -20 4
0 8 -35 8 -78 l0 -77 51 -6 c102 -13 310 -19 287 -9 -20 8 -29 22 -20 33 1 2
-4 11 -11 20 -11 13 -10 17 4 25 11 6 13 11 5 16 -17 11 -13 36 7 37 12 0 10
3 -7 10 -13 5 -27 7 -30 3 -3 -3 -4 -35 -3 -71 l4 -66 -69 6 c-37 4 -95 7
-129 7 l-60 0 -1 63 c-3 202 -16 508 -22 510 -3 2 -16 1 -28 -1z"/>
<path d="M2088 723 c-14 -4 -18 -15 -18 -59 l0 -54 40 0 40 0 0 60 c0 64 -5
68 -62 53z"/>
<path d="M1974 698 c3 -13 6 -40 6 -61 0 -38 1 -38 35 -35 20 2 35 6 35 11 0
4 0 30 0 57 l0 50 -41 0 c-38 0 -41 -2 -35 -22z"/>
<path d="M1631 639 c2 -27 5 -52 8 -54 4 -2 19 -1 34 2 26 5 27 8 26 54 -2 49
-2 49 -36 49 l-34 0 2 -51z"/>
<path d="M2427 676 c-4 -9 -15 -13 -29 -10 -21 4 -21 4 -3 -5 11 -4 23 -7 26
-5 4 2 7 -8 7 -21 0 -23 -8 -29 -33 -26 -5 1 -1 -6 11 -16 30 -26 36 -50 14
-56 -10 -3 -23 0 -28 5 -5 5 -18 8 -28 5 -16 -4 -15 -5 4 -6 33 -2 28 -31 -5
-32 -26 -2 -26 -2 -4 -6 13 -3 28 0 34 6 5 5 23 7 40 4 26 -5 29 -4 23 15 -4
11 -9 51 -11 87 -4 70 -9 86 -18 61z"/>
<path d="M1560 630 c0 -49 1 -50 30 -50 29 0 30 1 30 50 0 49 -1 50 -30 50
-29 0 -30 -1 -30 -50z"/>
<path d="M2770 673 c0 -7 -12 -13 -27 -13 -14 0 -23 -3 -19 -7 6 -7 268 -5
274 2 2 2 1 8 -2 13 -3 6 -20 7 -41 2 -24 -5 -35 -4 -35 4 0 6 -5 4 -10 -4 -5
-8 -10 -10 -10 -5 0 6 -9 11 -20 11 -11 0 -20 -3 -20 -6 0 -3 -9 -6 -20 -7
-11 -1 -20 4 -20 10 0 8 -3 8 -9 -1 -4 -8 -12 -14 -16 -14 -4 0 -12 6 -16 14
-7 10 -9 10 -9 1z"/>
<path d="M1138 658 c10 -4 11 -7 4 -7 -7 -1 -10 -6 -7 -12 4 -6 26 -8 53 -5
26 2 67 5 90 5 26 1 42 5 40 11 -2 6 -44 12 -100 13 -54 1 -90 -1 -80 -5z"/>
<path d="M1720 647 c0 -9 6 -18 13 -20 10 -4 10 -6 0 -6 -16 -1 -17 -31 -1
-31 6 0 8 3 5 7 -4 3 -2 12 4 19 8 10 7 18 -5 29 -14 14 -16 14 -16 2z"/>
<path d="M2181 578 c2 -144 13 -273 24 -270 6 1 10 12 10 25 0 12 5 25 10 29
6 5 6 8 -2 8 -7 0 -11 26 -10 83 0 46 -3 88 -7 95 -4 7 -3 12 2 12 6 0 7 14 1
38 -12 50 -12 50 9 55 10 3 6 5 -10 6 l-28 1 1 -82z"/>
<path d="M47 644 c-7 -7 14 -44 25 -44 4 0 4 7 1 17 -4 11 -3 14 5 9 8 -5 10
-2 6 8 -6 16 -26 21 -37 10z"/>
<path d="M157 630 c-10 -12 -12 -22 -6 -26 6 -3 11 -4 12 -3 2 2 8 11 15 21
18 23 -1 31 -21 8z"/>
<path d="M490 624 c0 -8 -4 -12 -10 -9 -5 3 -10 -1 -10 -9 0 -21 6 -20 30 4
24 24 25 30 5 30 -8 0 -15 -7 -15 -16z"/>
<path d="M907 618 c4 -13 12 -32 20 -43 12 -18 13 -16 13 23 0 35 -3 42 -19
42 -15 0 -18 -5 -14 -22z"/>
<path d="M950 596 c0 -39 2 -44 20 -39 16 4 20 14 20 44 0 32 -3 39 -20 39
-17 0 -20 -7 -20 -44z"/>
<path d="M1243 623 c-68 -4 -88 -13 -63 -28 7 -4 10 -92 9 -246 l-1 -240 -29
-6 c-16 -3 -29 -9 -29 -14 0 -12 27 -11 35 1 10 17 114 12 146 -7 25 -15 31
-15 38 -4 5 8 14 10 21 6 8 -5 11 -4 6 3 -3 6 -2 13 4 17 5 3 10 -2 11 -12 1
-10 7 2 15 26 8 25 12 46 10 49 -2 2 -7 -6 -11 -17 -3 -12 -15 -21 -26 -21
-10 0 -19 -7 -19 -15 0 -8 -4 -15 -9 -15 -5 0 -17 -3 -27 -7 -14 -5 -16 -3 -9
18 8 26 13 520 5 517 -3 -1 -38 -4 -77 -5z m50 -63 c3 -13 0 -20 -9 -20 -11 0
-12 -4 -5 -19 8 -14 7 -22 -4 -31 -17 -14 -21 -35 -5 -25 6 3 10 -1 10 -9 0
-8 -4 -17 -9 -21 -5 -3 -9 -19 -9 -36 1 -20 4 -26 9 -17 6 9 9 6 9 -9 0 -13
-4 -23 -10 -23 -5 0 -10 -4 -10 -10 0 -5 8 -7 18 -3 15 6 14 3 -3 -17 -16 -19
-17 -22 -4 -17 14 5 16 -1 15 -36 -2 -23 2 -46 8 -50 8 -6 8 -10 0 -13 -7 -3
-10 -14 -7 -25 8 -29 -31 -63 -60 -53 l-22 8 25 6 24 6 -20 20 c-19 19 -19 22
-5 32 14 9 12 11 -9 12 -24 1 -24 1 -5 13 12 7 20 18 19 25 -1 6 -2 21 -3 31
0 11 -9 22 -18 24 -11 3 -7 5 10 6 15 0 27 6 27 11 0 6 -12 10 -27 11 l-28 1
28 11 c34 14 34 25 0 33 l-27 7 25 10 c23 9 23 9 4 17 -19 9 -19 9 3 16 15 4
22 14 22 31 0 17 -4 22 -12 17 -9 -5 -9 -2 1 9 12 15 10 17 -15 17 l-29 1 33
14 c31 13 47 30 18 19 -8 -3 -17 -1 -21 5 -3 6 -1 11 5 11 7 0 9 8 5 19 -4 14
0 21 12 23 22 5 39 -7 46 -32z"/>
<path d="M2709 628 c-8 -16 -2 -58 8 -58 7 0 13 7 13 15 0 8 5 15 10 15 6 0
10 -6 10 -14 0 -10 26 -13 125 -12 123 1 125 1 125 24 0 13 -6 22 -15 22 -8 0
-15 -4 -15 -10 0 -6 -43 -10 -110 -10 -91 0 -110 3 -110 15 0 12 -36 23 -41
13z"/>
<path d="M680 607 c0 -7 7 -22 15 -33 14 -18 14 -17 15 14 0 22 -5 32 -15 32
-8 0 -15 -6 -15 -13z"/>
<path d="M720 585 c0 -24 5 -35 15 -35 10 0 15 11 15 35 0 24 -5 35 -15 35
-10 0 -15 -11 -15 -35z"/>
<path d="M2479 615 c-6 -10 -6 -24 7 -220 5 -66 8 -138 7 -160 -1 -22 -2 -52
-2 -67 -1 -31 -21 -39 -21 -8 0 10 -6 23 -13 27 -8 4 -18 16 -23 25 -8 14 -11
15 -28 2 -18 -12 -18 -14 -2 -14 29 0 54 -32 46 -60 l-6 -25 -14 33 c-8 17
-21 32 -29 32 -10 0 -11 -3 -2 -14 10 -12 8 -13 -10 -9 -15 4 -20 3 -15 -5 4
-7 17 -12 29 -13 20 -1 20 -2 -3 -8 -22 -6 -19 -8 20 -14 25 -3 49 -2 54 3 18
18 36 -3 36 -44 0 -29 3 -37 9 -26 6 8 7 18 4 23 -3 5 -13 132 -22 281 -9 149
-19 267 -22 261z"/>
<path d="M370 580 c0 -5 6 -10 13 -10 27 0 47 -36 49 -86 l1 -49 4 45 c3 24 9
48 15 51 6 4 -5 18 -24 33 -36 27 -58 33 -58 16z"/>
<path d="M1980 531 l0 -60 40 2 40 1 0 58 0 58 -40 0 -40 0 0 -59z"/>
<path d="M2070 546 c0 -66 4 -72 51 -68 40 4 41 5 35 34 -3 17 -6 41 -6 54 0
21 -5 24 -40 24 l-40 0 0 -44z"/>
<path d="M122 561 c-9 -5 -10 -15 -3 -32 9 -23 9 -23 17 -4 4 11 9 23 11 27 6
11 -12 17 -25 9z"/>
<path d="M773 563 c-9 -3 -13 -29 -13 -79 0 -68 2 -74 21 -74 19 0 19 1 5 16
-19 19 -21 50 -3 57 6 3 7 6 1 6 -15 1 -9 62 8 72 14 9 1 11 -19 2z"/>
<path d="M1560 550 c0 -8 3 -32 6 -52 7 -41 27 -53 24 -15 -4 46 0 73 9 59 6
-10 10 -9 14 7 4 18 1 21 -24 19 -19 -1 -29 -8 -29 -18z"/>
<path d="M1640 542 c0 -25 4 -29 30 -29 26 0 30 4 30 29 0 24 -4 28 -30 28
-26 0 -30 -4 -30 -28z"/>
<path d="M2740 553 c0 -7 -7 -13 -15 -13 -12 0 -14 -7 -8 -27 3 -16 7 -56 7
-90 1 -56 3 -62 24 -66 14 -3 22 1 22 10 0 8 -4 12 -9 8 -5 -3 -12 3 -15 13
-8 25 -4 125 5 137 4 6 4 17 -1 25 -7 10 -10 11 -10 3z"/>
<path d="M170 535 c0 -9 -6 -18 -13 -21 -7 -2 -13 -22 -14 -44 -2 -30 1 -38
13 -33 9 3 14 -1 14 -12 0 -12 -5 -15 -20 -10 -23 7 -26 -2 -6 -24 19 -22 24
-120 7 -131 -16 -9 -6 -30 15 -30 11 0 13 6 9 20 -3 11 -3 20 2 20 4 0 7 43 5
95 -2 52 -8 95 -13 95 -5 0 -9 7 -9 16 0 8 5 12 10 9 6 -3 10 -3 11 2 0 4 2
20 4 36 2 15 -1 27 -6 27 -5 0 -9 -7 -9 -15z"/>
<path d="M952 503 c-2 -37 1 -43 18 -43 11 0 20 7 20 15 0 8 -6 12 -14 9 -11
-4 -16 4 -19 28 -3 30 -4 29 -5 -9z"/>
<path d="M203 493 c-7 -2 -13 -12 -13 -21 1 -15 2 -14 11 2 8 12 14 15 18 7 5
-8 15 -9 32 -2 16 6 18 10 7 10 -9 1 -22 3 -30 5 -7 3 -19 2 -25 -1z"/>
<path d="M1640 485 c0 -10 10 -15 30 -15 20 0 30 5 30 15 0 10 -10 15 -30 15
-20 0 -30 -5 -30 -15z"/>
<path d="M2430 476 c0 -29 10 -38 30 -25 11 6 12 9 2 9 -7 0 -12 7 -10 16 2
10 -3 19 -9 21 -8 3 -13 -5 -13 -21z"/>
<path d="M295 443 c10 -52 13 -93 5 -88 -16 10 -21 -29 -6 -41 9 -6 16 -16 16
-23 0 -6 5 -11 10 -11 6 0 10 5 10 11 0 5 5 7 10 4 6 -3 10 1 10 10 0 9 -4 14
-9 11 -12 -8 -41 4 -41 16 0 5 5 6 10 3 6 -4 10 5 10 20 0 15 4 24 10 20 6 -3
10 1 10 10 0 9 -4 13 -10 10 -5 -3 -10 -1 -10 4 0 6 5 11 10 11 16 0 12 22 -7
36 -24 18 -32 17 -28 -3z"/>
<path d="M1978 453 c7 -3 12 -24 12 -53 0 -50 13 -71 33 -51 7 7 7 20 0 46
-11 34 -10 35 14 35 24 0 25 -2 20 -40 -4 -28 -1 -40 7 -40 10 0 12 14 8 52
-5 48 -4 51 11 37 11 -12 14 -27 10 -58 -5 -33 -3 -40 8 -36 10 4 13 17 11 45
-3 31 -1 40 11 40 11 0 17 -12 19 -42 4 -54 28 -64 28 -11 0 83 -1 83 -109 82
-53 0 -90 -3 -83 -6z"/>
<path d="M2793 400 c0 -36 2 -50 4 -32 2 17 2 47 0 65 -2 17 -4 3 -4 -33z"/>
<path d="M679 423 c5 -25 6 -26 9 -6 2 16 12 23 35 26 28 3 27 4 -9 5 -40 2
-41 1 -35 -25z"/>
<path d="M906 441 c5 -5 27 -6 49 -1 l40 8 -49 1 c-30 1 -46 -3 -40 -8z"/>
<path d="M1568 425 c6 -34 58 -36 65 -2 l4 22 8 -22 c7 -23 27 -33 23 -12 -2
6 3 14 10 16 6 3 12 -2 12 -11 0 -9 5 -16 10 -16 6 0 10 11 10 25 0 24 -2 25
-74 25 -73 0 -73 0 -68 -25z"/>
<path d="M412 424 c2 -15 -2 -18 -22 -15 -14 1 -28 8 -32 15 -4 6 -8 -8 -8
-32 0 -27 4 -41 10 -37 6 4 8 15 5 25 -5 16 -2 18 22 11 25 -7 28 -12 31 -54
2 -26 -1 -47 -7 -47 -5 0 -12 -8 -14 -17 -4 -15 -5 -14 -6 3 0 11 -7 21 -14
21 -9 0 -12 -9 -9 -24 3 -17 0 -23 -14 -23 -11 0 -29 -3 -41 -6 -18 -5 -22 -1
-26 23 l-4 28 -2 -28 c0 -16 -5 -26 -9 -23 -4 2 -14 0 -22 -5 -11 -7 5 -9 50
-8 36 2 76 -1 89 -5 16 -6 26 -4 32 5 12 19 11 32 -1 24 -5 -3 -10 1 -10 9 0
9 5 16 10 16 6 0 10 20 10 44 0 26 5 46 13 49 9 4 9 6 0 6 -7 1 -10 8 -7 16 3
8 -2 22 -11 31 -15 16 -16 16 -13 -2z"/>
<path d="M1400 369 c0 -68 8 -109 20 -109 11 0 -3 156 -15 169 -3 2 -5 -25 -5
-60z"/>
<path d="M760 391 c0 -8 -8 -10 -20 -6 -11 4 -20 2 -20 -4 0 -6 7 -11 16 -11
17 0 34 -15 52 -45 10 -17 11 -17 12 -3 0 9 -5 20 -11 23 -6 4 -8 13 -5 20 3
8 -2 19 -10 25 -11 10 -14 10 -14 1z"/>
<path d="M1570 335 l0 -55 35 0 35 0 -7 48 c-6 49 -16 62 -45 62 -15 0 -18 -9
-18 -55z"/>
<path d="M1650 330 c0 -36 4 -50 14 -50 10 0 12 11 8 46 -4 37 -2 46 9 42 9
-3 14 -20 14 -46 0 -22 3 -44 8 -48 4 -4 7 18 7 49 0 57 0 57 -30 57 -29 0
-30 -1 -30 -50z"/>
<path d="M682 323 c4 -52 28 -56 28 -4 0 30 -4 41 -16 41 -11 0 -14 -9 -12
-37z"/>
<path d="M910 316 c0 -39 3 -46 20 -46 11 0 20 5 20 10 0 6 -7 10 -15 10 -10
0 -15 10 -15 30 0 17 5 30 10 30 6 0 10 -7 10 -15 0 -8 5 -15 11 -15 20 0 4
35 -19 38 -20 3 -22 -1 -22 -42z"/>
<path d="M1998 270 l4 -60 39 0 39 0 0 60 0 60 -42 0 -43 0 3 -60z m70 6 c2
-18 0 -26 -7 -21 -6 3 -11 1 -11 -4 0 -6 -4 -11 -10 -11 -5 0 -10 16 -10 36 0
28 3 35 18 32 10 -2 18 -14 20 -32z"/>
<path d="M2091 303 c0 -25 1 -26 9 -8 7 16 9 12 9 -18 1 -23 -3 -36 -9 -32 -5
3 -10 -3 -10 -13 0 -16 9 -21 43 -24 23 -3 42 -4 42 -4 1 1 -1 29 -3 64 l-4
62 -39 0 c-36 0 -39 -2 -38 -27z m59 -33 c0 -29 -4 -40 -15 -40 -11 0 -15 11
-15 40 0 29 4 40 15 40 11 0 15 -11 15 -40z"/>
<path d="M2438 318 c17 -17 15 -31 -3 -25 -8 4 -17 2 -20 -3 -3 -5 4 -11 15
-15 11 -3 20 -15 20 -26 0 -10 5 -19 11 -19 6 0 8 16 5 43 -3 23 -5 45 -5 50
-1 4 -9 7 -18 7 -13 0 -14 -3 -5 -12z"/>
<path d="M2726 218 c2 -61 4 -117 4 -125 0 -7 4 -13 8 -13 5 0 9 51 9 113 0
65 -3 104 -8 92 -4 -11 -8 -14 -8 -7 -1 7 4 22 9 33 8 15 7 19 -4 19 -11 0
-13 -20 -10 -112z"/>
<path d="M2803 255 c0 -33 2 -45 4 -27 2 18 2 45 0 60 -2 15 -4 0 -4 -33z"/>
<path d="M2603 273 c-7 -3 -13 -12 -12 -21 0 -11 2 -12 6 -4 8 20 23 14 23
-10 1 -21 1 -22 11 -4 13 21 -7 47 -28 39z"/>
<path d="M1564 243 c3 -22 93 -37 115 -19 11 8 13 8 7 -1 -5 -9 -1 -13 12 -13
15 0 19 5 15 19 -3 14 -17 20 -56 25 -83 10 -96 8 -93 -11z"/>
<path d="M2770 255 c-5 -22 2 -140 9 -147 4 -5 5 22 3 60 -3 70 -8 104 -12 87z"/>
<path d="M1826 177 c-9 -96 6 -155 29 -117 5 8 11 8 20 0 24 -20 35 62 11 85
-12 12 -13 9 -11 -21 3 -29 0 -35 -13 -32 -12 2 -17 13 -15 38 0 19 1 52 2 74
1 30 4 37 16 32 8 -3 15 -1 15 4 0 6 -11 10 -24 10 -22 0 -24 -5 -30 -73z"/>
<path d="M200 211 c0 -23 16 -36 25 -21 4 6 11 7 17 4 7 -4 8 -2 4 4 -4 7 -16
17 -27 22 -16 9 -19 7 -19 -9z"/>
<path d="M27 203 c-11 -17 10 -34 46 -36 20 -2 34 0 31 5 -3 4 -16 8 -29 8
-13 0 -28 7 -33 16 -5 9 -12 12 -15 7z"/>
<path d="M290 198 c0 -26 15 -38 49 -37 21 1 28 3 16 6 -24 6 -44 23 -27 23 7
0 12 3 12 8 0 4 -11 7 -25 7 -14 0 -25 -3 -25 -7z"/>
<path d="M368 193 c6 -2 12 -11 12 -19 0 -11 14 -14 58 -13 l57 1 -40 12 c-22
7 -45 11 -51 9 -7 -3 -15 0 -19 6 -3 6 -12 11 -18 10 -9 0 -9 -2 1 -6z"/>
<path d="M240 153 c-25 -13 -25 -13 13 -13 20 0 37 4 37 9 0 16 -24 18 -50 4z"/>
<path d="M755 164 c11 -3 39 -9 62 -15 23 -6 61 -12 85 -14 24 -1 63 -6 88
-10 25 -4 42 -4 39 -1 -8 9 -235 46 -269 45 -20 -1 -21 -2 -5 -5z"/>
<path d="M1494 148 c3 -13 6 -30 7 -38 0 -10 3 -8 8 5 9 23 3 55 -11 55 -6 0
-8 -10 -4 -22z"/>
<path d="M2450 71 c0 -11 5 -23 10 -26 6 -3 10 -2 10 4 0 5 3 16 6 25 4 11 1
16 -10 16 -9 0 -16 -8 -16 -19z"/>
<path d="M2780 76 c0 -12 11 -16 49 -16 26 0 76 -3 110 -6 40 -5 61 -3 61 4 0
5 -28 13 -62 16 -35 4 -84 9 -110 12 -40 5 -48 3 -48 -10z"/>
<path d="M1490 70 c0 -5 5 -10 11 -10 6 0 9 -7 5 -15 -3 -9 0 -15 10 -15 8 0
29 -7 47 -16 l32 -15 -34 29 c-19 16 -30 31 -25 34 5 3 4 3 -3 2 -7 -2 -15 1
-18 6 -8 13 -25 13 -25 0z"/>
<path d="M2 58 c3 -7 20 -16 39 -20 74 -17 237 -38 284 -36 l50 1 -60 7 c-33
4 -100 17 -150 28 -146 32 -168 35 -163 20z"/>
<path d="M1565 62 c6 -6 37 -14 70 -18 63 -7 74 0 15 10 -19 3 -48 8 -65 12
-21 5 -27 3 -20 -4z"/>
<path d="M1818 22 c5 -25 42 -31 42 -6 0 9 6 14 13 11 6 -2 11 -11 9 -18 -1
-8 4 -5 13 5 22 29 20 31 -33 31 -45 0 -48 -2 -44 -23z"/>
<path d="M2841 23 c11 -18 22 -23 54 -21 l40 1 -35 4 c-19 3 -44 12 -54 21
-18 16 -18 16 -5 -5z"/>
</g>
</svg>
