<svg width="905" height="500" fill="none" xmlns="http://www.w3.org/2000/svg"><path fill="#4C4C4C" d="M0 0h905v500H0z"/><path d="M184.439 83.806c-17.61 17.621-28.505 41.987-28.505 68.906 0 53.759 43.457 97.34 97.065 97.34 53.607 0 97.065-43.581 97.065-97.34 0-26.919-10.896-51.285-28.505-68.906l-68.56-68.754-68.56 68.754Z" fill="#FFC2EE" style="mix-blend-mode:soft-light"/><path d="M321.746 84.635c-24.858-.046-49.717 9.404-68.668 28.356-37.849 37.848-37.802 99.26.104 137.166 37.907 37.906 99.318 37.953 137.166.105 18.952-18.952 28.402-43.811 28.356-68.668l-.074-96.885-96.884-.074Z" fill="#EA6D6D" style="mix-blend-mode:soft-light"/><path d="M419.246 181.492c-17.621-17.61-41.987-28.506-68.906-28.506-53.759 0-97.34 43.458-97.34 97.065 0 53.608 43.581 97.066 97.34 97.066 26.918 0 51.285-10.896 68.906-28.506L488 250.052l-68.754-68.56Z" fill="#E29F61" style="mix-blend-mode:soft-light"/><path d="M418.565 319.576c-.008-24.912-9.533-49.846-28.567-68.88-38.014-38.014-99.559-38.101-137.465-.194-37.907 37.906-37.82 99.451.194 137.465 19.034 19.034 43.968 28.559 68.88 28.567l97.096.138-.138-97.096Z" fill="#F1CD4E" style="mix-blend-mode:soft-light"/><path d="M321.561 416.298c17.61-17.621 28.505-41.988 28.505-68.906 0-53.76-43.457-97.34-97.065-97.34-53.607 0-97.065 43.58-97.065 97.34 0 26.918 10.895 51.285 28.505 68.906l68.56 68.754 68.56-68.754Z" fill="#B1D368" style="mix-blend-mode:soft-light"/><path d="M184.189 416.279c24.912-.008 49.845-9.533 68.88-28.567 38.013-38.014 38.1-99.559.194-137.466-37.906-37.906-99.452-37.819-137.465.195-19.035 19.034-28.56 43.968-28.568 68.88l-.137 97.095 97.096-.137Z" fill="#7ECB86" style="mix-blend-mode:soft-light"/><path d="M86.754 318.612c17.621 17.61 41.987 28.505 68.906 28.505 53.759 0 97.34-43.457 97.34-97.065s-43.581-97.065-97.34-97.065c-26.919 0-51.285 10.895-68.906 28.505L18 250.052l68.754 68.56Z" fill="#8DD1ED" style="mix-blend-mode:soft-light"/><path d="M87.177 180.731c.008 24.912 9.533 49.846 28.567 68.88 38.014 38.014 99.559 38.101 137.466.195 37.906-37.906 37.819-99.452-.195-137.465-19.034-19.035-43.968-28.56-68.88-28.568l-97.095-.137.137 97.095Z" fill="#D1B2E8" style="mix-blend-mode:soft-light"/><rect x="116.406" y="153.063" width="271.719" height="193.875" rx="29.408" fill="#4C4C4C"/><path d="M598.617 205.688c4.392-.524 7.294-4.15 7.294-8.503 0-2.901-1.451-5.762-3.99-7.253-2.418-1.371-5.319-1.411-8.019-1.411h-4.594v30.385h3.788v-12.855h1.571l8.947 12.855h4.594l-9.591-13.218Zm-5.521-13.782h1.007c3.748 0 8.262.685 8.262 5.44 0 4.836-4.192 5.562-8.06 5.562h-1.209v-11.002Zm22.123 27h16.32v-3.465h-12.532v-11.486h12.17v-3.465h-12.17v-8.503h12.532v-3.466h-16.32v30.385Zm28.833-30.385h-3.788v30.385h13.016v-3.465h-9.228v-26.92Zm34.002 22.769 3.466 7.616h4.07l-14.507-31.674-14.508 31.674h4.07l3.466-7.616h13.943Zm-1.571-3.466h-10.8l5.4-12.291 5.4 12.291Zm20.634-15.837h7.214v-3.466h-18.215v3.466h7.213v26.919h3.788v-26.919Zm17.895-3.466h-3.788v30.385h3.788v-30.385Zm23.511-.645c-8.704 0-15.918 7.133-15.918 15.838 0 9.027 7.133 15.837 15.918 15.837s15.918-6.81 15.918-15.837c0-8.705-7.213-15.838-15.918-15.838Zm0 28.129c-6.568 0-12.13-5.36-12.13-12.291 0-6.69 4.997-12.291 12.13-12.291 7.133 0 12.13 5.601 12.13 12.291 0 6.931-5.561 12.291-12.13 12.291Zm23.258 2.901h3.788v-22.648l22.809 23.898v-31.635h-3.788v22.446l-22.809-23.897v31.836Zm54.288-7.616 3.466 7.616h4.07l-14.507-31.674-14.508 31.674h4.07l3.466-7.616h13.943Zm-1.571-3.466h-10.8l5.4-12.291 5.4 12.291Zm19.469-19.303h-3.788v30.385h13.016v-3.465h-9.228v-26.92Zm-230.394 79.03 9.108-20.713h.081l3.546 20.068h3.909l-6.206-31.674-10.438 23.937-10.437-23.937-6.206 31.674h3.909l3.546-20.068h.081l9.107 20.713Zm27.709-31.03h-3.788v30.385h3.788v-30.385Zm9.367 30.385h3.788v-22.648l22.809 23.898v-31.635h-3.788v22.446l-22.809-23.897v31.836Zm35.71 0h6.166c9.591 0 17.167-4.997 17.167-15.354 0-10.115-7.737-15.031-17.046-15.031h-6.287v30.385Zm3.789-26.919h1.329c7.738 0 14.427 2.861 14.427 11.727 0 8.825-6.689 11.727-14.427 11.727h-1.329v-23.454Zm42.033 0v-3.466h-14.709v30.385h3.788v-14.91h10.558v-3.466H711.26v-8.543h10.921Zm7.924-3.466v19.223c0 6.689 4.15 11.807 11.122 11.807 6.972 0 11.122-5.118 11.122-11.807v-19.223h-3.788v17.933c0 4.957-1.491 9.551-7.334 9.551s-7.334-4.594-7.334-9.551v-17.933h-3.788Zm35.299 0h-3.788v30.385h13.016v-3.465h-9.228v-26.92Zm15.385 30.385h3.788v-22.648l22.809 23.898v-31.635h-3.788v22.446l-22.809-23.897v31.836Zm36.033 0h16.321v-3.465H820.61v-11.486h12.17v-3.465h-12.17v-8.503h12.533v-3.466h-16.321v30.385Zm41.567-26.436c-1.652-2.941-4.432-4.594-7.818-4.594-4.594 0-8.946 2.942-8.946 7.859 0 4.231 3.143 6.206 6.609 7.697l2.096.886c2.619 1.088 5.239 2.499 5.239 5.763 0 3.183-2.338 5.924-5.602 5.924-3.264 0-5.924-2.418-5.884-5.763l-3.828.806c.645 4.876 4.473 8.503 9.39 8.503 5.44 0 9.712-3.949 9.712-9.47 0-5.078-3.224-7.455-7.536-9.148l-2.176-.846c-1.894-.726-4.232-1.975-4.232-4.352 0-2.66 2.66-4.312 5.078-4.312 2.297 0 3.748.967 4.876 2.861l3.022-1.814Zm25.675 0c-1.652-2.941-4.433-4.594-7.818-4.594-4.594 0-8.946 2.942-8.946 7.859 0 4.231 3.143 6.206 6.609 7.697l2.095.886c2.62 1.088 5.239 2.499 5.239 5.763 0 3.183-2.337 5.924-5.601 5.924-3.265 0-5.924-2.418-5.884-5.763l-3.828.806c.644 4.876 4.473 8.503 9.389 8.503 5.441 0 9.712-3.949 9.712-9.47 0-5.078-3.224-7.455-7.536-9.148l-2.176-.846c-1.894-.726-4.231-1.975-4.231-4.352 0-2.66 2.66-4.312 5.078-4.312 2.297 0 3.747.967 4.876 2.861l3.022-1.814Zm-286.576 50.517h7.214v-3.466h-18.215v3.466h7.213v26.919h3.788v-26.919Zm23.537 13.701c4.393-.524 7.294-4.15 7.294-8.503 0-2.901-1.451-5.762-3.99-7.253-2.417-1.371-5.319-1.411-8.019-1.411h-4.594v30.385h3.788v-12.855h1.572l8.946 12.855h4.594l-9.591-13.218Zm-5.521-13.782h1.008c3.747 0 8.261.685 8.261 5.44 0 4.836-4.191 5.562-8.06 5.562h-1.209v-11.002Zm40.378 19.384 3.466 7.616h4.07l-14.508-31.674-14.507 31.674h4.07l3.466-7.616h13.943Zm-1.572-3.466h-10.8l5.4-12.291 5.4 12.291Zm19.349-19.303h-3.788v30.385h3.788v-30.385Zm9.366 30.385h3.788v-22.648l22.809 23.898v-31.635h-3.788v22.446l-22.809-23.897v31.836Zm39.701-30.385h-3.788v30.385h3.788v-30.385Zm9.366 30.385h3.788v-22.648l22.809 23.898v-31.635h-3.788v22.446l-22.809-23.897v31.836Zm51.669-15.313v3.465h7.858c-.161 4.957-5.239 9.027-9.953 9.027-6.569 0-11.808-6.044-11.808-12.412 0-6.81 5.319-12.331 12.13-12.331 3.707 0 7.375 1.975 9.551 4.957l2.659-2.539c-2.982-3.748-7.656-5.884-12.371-5.884-8.745 0-15.757 7.173-15.757 15.918 0 8.423 6.851 15.757 15.354 15.757s14.386-6.407 14.386-14.749v-1.209h-12.049Zm36.36-11.123c-1.652-2.941-4.432-4.594-7.817-4.594-4.595 0-8.947 2.942-8.947 7.859 0 4.231 3.144 6.206 6.609 7.697l2.096.886c2.619 1.088 5.239 2.499 5.239 5.763 0 3.183-2.338 5.924-5.602 5.924-3.264 0-5.924-2.418-5.884-5.763l-3.828.806c.645 4.876 4.473 8.503 9.39 8.503 5.44 0 9.712-3.949 9.712-9.47 0-5.078-3.224-7.455-7.536-9.148l-2.176-.846c-1.894-.726-4.232-1.975-4.232-4.352 0-2.66 2.66-4.312 5.078-4.312 2.297 0 3.748.967 4.876 2.861l3.022-1.814ZM150.824 228.747c6.499 7.449 7.199 8.298 9.648 11.248.65.7 1.2 1.4 1.2 1.9 0 .95-1.55 1-2.049 1.05-.9.05-.9.1-.9.749 0 .55.05.8.4.8 1.199 0 3.299-.05 5.149-.05 4.099 0 6.449.05 7.249.05.65 0 .85-.05.85-.8 0-.599-.2-.599-1.3-.849-1.15-.25-2.9-2.2-11.648-11.999-1.55-1.749-3.5-3.949-4.6-5.349.85-.65 8.499-7.199 10.199-8.499 2.849-2.149 3.949-2.449 4.749-2.699.9-.2 1-.25 1-.95 0-.6-.15-.7-.55-.7-2.35.1-4.699.15-7.049.15-1.3 0-3.4-.15-4.749-.15-.55 0-.65.15-.65.85s0 .7.95.75c1.699.15 2.599.2 2.599 1.249 0 .5-.1.95-2.649 3.5-1.6 1.6-5.15 4.849-9.949 9.099 0-2.35.05-7.999.25-10.349.2-2.45.4-3.199 3-3.499.999-.15.999-.15.999-1 0-.4-.05-.6-.549-.6-.85 0-5 .15-5.95.15-.899 0-5.399-.15-6.449-.15-.4 0-.5.1-.5.8 0 .5 0 .6.35.65 1.95.3 2.2.3 2.7.8.55.499.9.899.9 8.148 0 8.649-.1 13.298-.15 13.948-.15 4.9-.45 5.4-2.9 5.9-.95.2-1.05.2-1.05.949 0 .45.1.7.35.7.6 0 3.3-.1 6.999-.1 3.55 0 5.05.1 5.6.1.749 0 .799-.1.799-.85 0-.499-.05-.599-.15-.649-.2-.05-1.049-.1-1.249-.15-2.95-.35-2.95-.35-2.95-12.449l2.05-1.699Zm44.622 4.449c.5 1.45 2.6 7.199 2.6 8.099 0 1.3-1.3 1.55-2.55 1.65-.9.1-1 .1-1 .949 0 .45.05.65.7.65.65 0 1.85-.1 6.049-.1.8 0 4.699.1 5.549.1.45 0 .5-.15.5-.8 0-.599-.05-.649-.35-.749-1-.15-1.599-.3-2.299-1.35-1.65-2.5-10.349-25.047-11.049-27.896-.3-1.15-.3-1.3-.65-1.3-.4 0-1.999.35-2.799.4-.45.05-.7.15-.8.4-.65 2.099-1.4 3.999-2.2 5.849-1.05 2.4-6.399 13.998-7.599 16.648-2.05 4.549-3.149 6.849-4.949 7.249-.5.1-.5.15-.5.899 0 .45.05.65.6.65.7 0 2-.1 4.549-.1 2.15 0 4.4.1 5.199.1.55 0 .55-.25.55-.65 0-.749 0-.899-.5-.949-1.499-.1-3.549-.2-3.549-1.9 0-1.15 1.1-4 2.55-7.849h11.948Zm-5.699-15.048c.75 2.1 4.299 11.298 4.999 13.148-2.1.1-9.099.05-10.498 0 1.549-3.799 3.549-8.699 5.499-13.148Zm47.893 2.75c0-8.499-9.149-8.499-10.599-8.499-1.35 0-7.799.3-9.299.3-.7.05-4.299 0-5.099 0-.7 0-.75.05-.75.8 0 .6.05.65.5.7 1.9.15 2.8.2 3.2 1.399.45 1.3.45 7.299.45 9.199 0 4.649 0 10.699-.2 14.348-.05 1.5-.25 3.4-3 3.75-1.05.15-1.2.15-1.2.849 0 .5.1.8.4.8.85 0 5.149-.1 6.949-.1 4.45 0 5.749.1 6.499.1.45 0 .55-.2.55-.85 0-.499-.1-.649-.45-.649-3.099-.25-3.799-.45-4.149-2.35-.25-1.35-.2-8.149-.2-9.949.9.05 2.899.15 4.949-.05 5.199 11.049 9.499 14.248 15.298 14.248.7 0 1.9-.05 2.95-.4.4-.1.45-.3.45-.8 0-.45-.05-.649-.35-.649-1.05-.05-2.05-.1-3.7-1-4.449-2.55-8.949-11.499-9.549-12.649 3.95-1.499 6.35-4.299 6.35-8.548Zm-16.398 7.649c.05-1.9.1-10.349.15-11.999.05-1.949.05-2.249 3.199-2.249 3.1 0 5 1.099 6.05 2.999.849 1.5 1.049 3.15 1.049 4.6 0 6.249-4.199 6.899-7.599 6.899-1.349 0-2.049-.1-2.849-.25Zm45.602 13.198c-2.249 0-6.149-.5-7.699-3.6-1.149-2.399-1.249-6.799-1.249-9.598 0-.65.05-8.499.3-11.249.25-2.549 1.399-2.849 3.749-2.999 1.1-.1 1.15-.1 1.15-.95 0-.5-.15-.7-.7-.7-1.8 0-4.649.15-6.399.15-2.3 0-5.849-.15-6.799-.15-.55 0-.55.2-.55.8 0 .65.1.7 1.05.75 2.299.2 2.549 1.549 2.699 2.349.25 1.35.25 4.85.25 14.198 0 5 0 7.999 2.4 10.699 2.7 3.049 7.099 3.649 10.499 3.649 5.899 0 8.998-2.049 10.548-3.549 3.35-3.35 3.4-6.999 3.5-13.948.15-11.549.2-12.798 3.099-13.298 1-.2 1.1-.2 1.1-.95 0-.5-.05-.7-.55-.7-.75 0-4.449.15-5.299.15-.85 0-5.049-.15-5.999-.15-.4 0-.6.05-.6.85 0 .6.1.65.7.7 2.049.2 3.599.35 4.099 2.099.55 1.9.55 9.349.55 11.899 0 4.349 0 7.399-1.15 9.448-1.7 3-5.199 4.1-8.699 4.1Zm55.376-7.299c0-2.25.25-12.698.5-15.248.4-4.099 1.3-4.449 4.6-4.999.4-.05.4-.2.4-.8 0-.65-.1-.75-.45-.75-.9 0-1.9.1-5.649.1-3.8 0-6.2-.1-6.849-.1-.6 0-.65.2-.65.75 0 .7.1.75 1.199.8 3.55.25 4.1 1.399 4.2 6.149.05 1.4.05 12.698.05 15.398-2.6-3-15.898-16.948-18.697-20.298-1.15-1.399-1.95-2.799-2.25-2.799-1.55 0-2.65.1-3.9.1-1.049 0-2.599-.1-4.199-.1-.5 0-.65.05-.65.95 0 .65.1.65 1.15.75 3.949.35 4.049 3.549 4.049 6.349 0 .5-.1 12.648-.55 17.097-.3 3-.699 4.65-3.699 5.05-1.1.1-1.2.15-1.2.899 0 .75.25.8.65.8.6 0 3.599-.1 5.999-.1 1.85 0 5.749.1 6.599.1.5 0 .7 0 .7-.8 0-.749-.1-.749-1.2-.799-3.449-.15-4.049-1.1-4.349-3.45-.25-2.25-.25-16.298-.2-19.847 1.8 2.3 6.899 7.699 9.799 10.748 7.598 8.049 10.098 10.699 11.998 13.398.85 1.25.95 1.4 1.2 1.4s1-.45 1.449-.65c.3-.15.3-.3.3-.45 0-.35-.15-1.549-.25-2.949-.1-1.8-.1-5.449-.1-6.699Zm32.012-1.25c.5 1.45 2.6 7.199 2.6 8.099 0 1.3-1.3 1.55-2.55 1.65-.9.1-1 .1-1 .949 0 .45.05.65.7.65.65 0 1.85-.1 6.049-.1.8 0 4.699.1 5.549.1.45 0 .5-.15.5-.8 0-.599-.05-.649-.35-.749-1-.15-1.599-.3-2.299-1.35-1.65-2.5-10.349-25.047-11.049-27.896-.3-1.15-.3-1.3-.65-1.3-.4 0-1.999.35-2.799.4-.45.05-.7.15-.8.4-.65 2.099-1.4 3.999-2.2 5.849-1.05 2.4-6.399 13.998-7.599 16.648-2.049 4.549-3.149 6.849-4.949 7.249-.5.1-.5.15-.5.899 0 .45.05.65.6.65.7 0 2-.1 4.549-.1 2.15 0 4.4.1 5.2.1.549 0 .549-.25.549-.65 0-.749 0-.899-.499-.949-1.5-.1-3.55-.2-3.55-1.9 0-1.15 1.1-4 2.55-7.849h11.948Zm-5.699-15.048c.75 2.1 4.299 11.298 4.999 13.148-2.1.1-9.099.05-10.498 0 1.549-3.799 3.549-8.699 5.499-13.148Zm-203.369 53.439c0-4.411.071-5.928.177-6.846.211-1.976.67-2.505 2.752-2.576.706-.035.741-.071.741-.706 0-.423-.141-.459-.458-.459-.706 0-4.235.071-5.011.071-.706 0-4.129-.071-4.906-.071-.423 0-.529 0-.529.53 0 .564 0 .564.706.6 2.682.106 2.823.211 2.823 6.069 0 2.541 0 8.682-.177 10.94-.105 1.765-.247 3.07-2.576 3.211-.776.071-.882.071-.882.636 0 .423.071.494.459.494.741 0 4.411-.071 5.223-.071.705 0 4.199.071 4.975.071.247 0 .318-.071.318-.424 0-.282 0-.529-.141-.564-.212-.106-1.341-.106-1.623-.142-1.8-.247-1.871-.423-1.871-10.763Zm33.157 4.8c0-1.588.176-8.964.352-10.764.283-2.893.918-3.14 3.247-3.529.282-.035.282-.141.282-.564 0-.459-.07-.53-.317-.53-.635 0-1.341.071-3.988.071-2.682 0-4.376-.071-4.835-.071-.423 0-.458.142-.458.53 0 .494.07.529.847.564 2.505.177 2.893.989 2.964 4.341.035.988.035 8.963.035 10.869-1.835-2.117-11.222-11.963-13.198-14.327-.812-.988-1.376-1.977-1.588-1.977-1.094 0-1.87.071-2.752.071-.742 0-1.835-.071-2.965-.071-.353 0-.458.036-.458.671 0 .459.07.459.811.529 2.788.247 2.859 2.506 2.859 4.482 0 .353-.071 8.928-.389 12.069-.211 2.117-.494 3.282-2.611 3.564-.776.071-.847.106-.847.635 0 .53.177.565.459.565.423 0 2.541-.071 4.235-.071 1.305 0 4.058.071 4.658.071.353 0 .494 0 .494-.565 0-.529-.071-.529-.847-.564-2.435-.106-2.859-.777-3.07-2.435-.177-1.588-.177-11.505-.142-14.01 1.271 1.623 4.87 5.434 6.917 7.587 5.364 5.682 7.129 7.552 8.47 9.458.599.882.67.988.846.988.177 0 .706-.318 1.024-.459.212-.106.212-.212.212-.318 0-.247-.106-1.094-.177-2.082-.07-1.27-.07-3.846-.07-4.728Zm25.737-15.175c0-.176-.071-.282-.212-.282-.071 0-.212.035-.388.07a.916.916 0 0 1-.388.106c-.106 0-.883-.106-1.836-.247-.988-.106-2.152-.211-3.14-.211-5.717 0-8.046 2.964-8.046 6.246 0 3.776 2.929 5.081 6.211 6.528 3.458 1.518 5.293 2.329 5.293 4.87 0 2.294-1.764 3.953-4.446 3.953-1.447 0-3.353-.424-4.694-1.447-.811-.636-1.482-1.659-1.941-3.388-.106-.529-.141-.812-.388-.812-1.023 0-1.023.6-1.023.847 0 .388.211 3.388.564 5.717.071.318.106.423.494.423.424 0 .424-.317.918-.317.423 0 3.176.6 5.999.6 3.353 0 4.976-.812 6.07-1.588 1.306-.953 2.399-2.682 2.399-4.87 0-3.988-3.317-5.435-6.669-6.881-3.388-1.483-5.223-2.259-5.223-4.765 0-2.046 1.447-3.634 4.058-3.634 1.059 0 2.471.282 3.529 1.058 1.024.777 1.306 1.73 1.8 3.176.071.318.176.389.353.389.459 0 .917-.142.917-.6 0-.177-.211-1.977-.211-2.718v-2.223Zm17.95 1.8c.035 2.258.035 6.105.035 6.917 0 1.305-.035 8.01-.141 9.634-.141 1.87-.459 2.54-3.035 2.787-.67.071-.67.071-.67.6 0 .494 0 .565.458.565 1.271 0 2.577-.106 5.4-.106 3.07 0 4.552.106 5.152.106.423 0 .494 0 .494-.565 0-.529-.071-.529-.776-.564-2.753-.071-2.894-1.094-3-2.188-.106-1.482-.141-2.4-.141-9.458 0-2.541.035-5.187.07-7.728 2.929 0 4.659.035 5.541.176 1.553.212 1.553.812 1.553 3.035 0 .424.282.424.741.424.423 0 .494-.071.6-.6.529-2.153 1.129-4.905 1.129-5.117 0-.212-.177-.247-.388-.247-.142 0-.847.212-1.024.247-1.517.282-9.069.282-11.328.282-1.446 0-7.375 0-8.151-.388a1.211 1.211 0 0 0-.565-.141c-.282 0-.318.106-.388.388-.282 1.341-.882 4.729-.882 5.188 0 .317.247.388.705.388.459 0 .459-.071.671-.812.741-2.752 1.905-2.752 7.94-2.823Zm26.694 8.575c0-4.411.07-5.928.176-6.846.212-1.976.671-2.505 2.753-2.576.706-.035.741-.071.741-.706 0-.423-.141-.459-.459-.459-.706 0-4.234.071-5.011.071-.706 0-4.129-.071-4.905-.071-.423 0-.529 0-.529.53 0 .564 0 .564.705.6 2.682.106 2.824.211 2.824 6.069 0 2.541 0 8.682-.177 10.94-.106 1.765-.247 3.07-2.576 3.211-.776.071-.882.071-.882.636 0 .423.07.494.459.494.741 0 4.411-.071 5.222-.071.706 0 4.2.071 4.976.071.247 0 .318-.071.318-.424 0-.282 0-.529-.141-.564-.212-.106-1.341-.106-1.624-.142-1.8-.247-1.87-.423-1.87-10.763Zm19.182-8.575c.035 2.258.035 6.105.035 6.917 0 1.305-.035 8.01-.141 9.634-.141 1.87-.459 2.54-3.035 2.787-.67.071-.67.071-.67.6 0 .494 0 .565.458.565 1.271 0 2.576-.106 5.4-.106 3.07 0 4.552.106 5.152.106.423 0 .494 0 .494-.565 0-.529-.071-.529-.777-.564-2.752-.071-2.893-1.094-2.999-2.188-.106-1.482-.141-2.4-.141-9.458 0-2.541.035-5.187.07-7.728 2.929 0 4.658.035 5.541.176 1.552.212 1.552.812 1.552 3.035 0 .424.283.424.741.424.424 0 .494-.071.6-.6.53-2.153 1.13-4.905 1.13-5.117 0-.212-.177-.247-.389-.247-.141 0-.847.212-1.023.247-1.517.282-9.069.282-11.328.282-1.447 0-7.375 0-8.152-.388a1.205 1.205 0 0 0-.564-.141c-.282 0-.318.106-.388.388-.283 1.341-.883 4.729-.883 5.188 0 .317.247.388.706.388.459 0 .459-.071.671-.812.741-2.752 1.905-2.752 7.94-2.823Zm32.058 18.527c-1.588 0-4.341-.353-5.435-2.541-.811-1.694-.882-4.799-.882-6.776 0-.458.035-5.999.212-7.94.176-1.799.988-2.011 2.646-2.117.777-.071.812-.071.812-.67 0-.353-.106-.495-.494-.495-1.27 0-3.282.106-4.517.106-1.623 0-4.129-.106-4.799-.106-.389 0-.389.142-.389.565 0 .459.071.494.742.529 1.623.142 1.799 1.094 1.905 1.659.177.953.177 3.423.177 10.022 0 3.529 0 5.646 1.693 7.552 1.906 2.153 5.011 2.576 7.411 2.576 4.164 0 6.352-1.447 7.446-2.505 2.365-2.365 2.4-4.941 2.47-9.846.106-8.152.142-9.034 2.188-9.387.706-.141.777-.141.777-.67 0-.353-.036-.495-.389-.495-.529 0-3.14.106-3.74.106-.6 0-3.564-.106-4.235-.106-.282 0-.423.036-.423.6 0 .424.07.459.494.494 1.447.142 2.541.247 2.893 1.483.389 1.341.389 6.599.389 8.398 0 3.071 0 5.223-.812 6.67-1.2 2.117-3.67 2.894-6.14 2.894Zm26.879-18.527c.035 2.258.035 6.105.035 6.917 0 1.305-.035 8.01-.141 9.634-.141 1.87-.459 2.54-3.035 2.787-.671.071-.671.071-.671.6 0 .494 0 .565.459.565 1.271 0 2.576-.106 5.399-.106 3.071 0 4.553.106 5.153.106.423 0 .494 0 .494-.565 0-.529-.071-.529-.777-.564-2.752-.071-2.893-1.094-2.999-2.188-.106-1.482-.141-2.4-.141-9.458 0-2.541.035-5.187.07-7.728 2.929 0 4.658.035 5.541.176 1.552.212 1.552.812 1.552 3.035 0 .424.283.424.741.424.424 0 .494-.071.6-.6.53-2.153 1.13-4.905 1.13-5.117 0-.212-.177-.247-.389-.247-.141 0-.847.212-1.023.247-1.517.282-9.069.282-11.328.282-1.447 0-7.375 0-8.152-.388a1.205 1.205 0 0 0-.564-.141c-.283 0-.318.106-.388.388-.283 1.341-.883 4.729-.883 5.188 0 .317.247.388.706.388.459 0 .459-.071.671-.812.741-2.752 1.905-2.752 7.94-2.823Zm22.988 8.681c0 1.835 0 6.705-.141 8.505-.176 1.799-.706 2.082-2.152 2.223-.777.071-.777.071-.777.565 0 .529 0 .529.6.529.918 0 2.647-.106 6.634-.106 7.976 0 9.14.106 9.705.106.494 0 .494-.106.741-.988.459-1.518 1.094-4.376 1.094-4.835 0-.353-.706-.459-.882-.459-.177 0-.247.177-.635 1.165-1.2 2.929-2.612 3.423-7.235 3.423-2.329 0-2.858-.247-3.035-.988-.176-.741-.176-7.023-.176-8.328 4.305 0 5.329.035 6.423.317 1.235.318 1.411 1.306 1.517 2.188.035.53.035.6.635.6.424 0 .459-.106.459-.423 0-.388-.071-1.377-.071-2.859 0-1.552.071-2.646.071-3.882 0-.211-.035-.317-.494-.317-.529 0-.529.106-.6.423-.353 2.365-.353 2.506-7.905 2.471 0-.847-.035-4.87 0-5.788 0-.847 0-2.152.177-2.329.317-.353 2.999-.353 3.599-.353 5.399 0 5.47.812 5.752 3.317.071.706.071.777.635.777.53 0 .6-.071.6-.318.106-1.87.106-2.082.177-2.858.035-.353.247-2.047.247-2.188 0-.247-.318-.283-.706-.283-2.435 0-7.375.106-11.398.106-2.118 0-3.317-.106-5.082-.106-.282 0-.565.036-.565.6 0 .494.071.53.6.53 1.377.035 1.977.317 2.082 1.588.106 1.517.106 6.069.106 7.975Z" fill="#fff"/><path stroke="#fff" stroke-width="1.5" stroke-linecap="round" d="M534.281 153.813v192.375"/></svg>